<?xml version="1.0" standalone="no"?>
 <!DOCTYPE svg PUBLIC "-//W3C//DTD SVG 1.1//EN" 
 "http://www.w3.org/Graphics/SVG/1.1/DTD/svg11.dtd"> 
<svg xmlns="http://www.w3.org/2000/svg" version="1.1" 
    width="29.7002cm" height="21.0007cm" viewBox="0 0 116930 82680 ">
<title>SVG Picture created as 4op_drum_module-B.SilkS.svg date 2019/01/14 14:07:00 </title>
  <desc>Picture generated by PCBNEW </desc>
<g style="fill:#000000; fill-opacity:1;stroke:#000000; stroke-opacity:1;
stroke-linecap:round; stroke-linejoin:round; "
 transform="translate(0 0) scale(1 1)">
</g>
<g style="fill:#000000; fill-opacity:0.0; 
stroke:#000000; stroke-width:-0.000393701; stroke-opacity:1; 
stroke-linecap:round; stroke-linejoin:round;">
</g>
<g style="fill:#000000; fill-opacity:0.0; 
stroke:#000000; stroke-width:47.2441; stroke-opacity:1; 
stroke-linecap:round; stroke-linejoin:round;">
<path d="M61023 38547
L53976 38547
" />
<path d="M61023 18452
L61023 38547
" />
<path d="M53976 18452
L61023 18452
" />
<path d="M53976 38547
L53976 18452
" />
<path d="M60043 38523
L57893 38523
" />
<path d="M60043 18476
L60043 38523
" />
<path d="M54956 18476
L60043 18476
" />
<path d="M54956 38523
L54956 18476
" />
<path d="M57106 38523
L54956 38523
" />
<path d="M57893.7 38523.6 A393.701 393.701 0.0 0 0 57106.3 38523.6 " />
<circle cx="50500" cy="39500" r="522.193" /> 
<path d="M50500 38977
L50500 38933
" />
<path d="M73606.3 23476.4 A393.701 393.701 0.0 0 0 74393.7 23476.4 " />
<path d="M74393 23476
L75043 23476
" />
<path d="M75043 23476
L75043 30523
" />
<path d="M75043 30523
L72956 30523
" />
<path d="M72956 30523
L72956 23476
" />
<path d="M72956 23476
L73606 23476
" />
<path d="M75047 30460
L72984 30460
" />
<path d="M75047 31539
L72984 31539
" />
<path d="M75047 30460
L75047 30584
" />
<path d="M75047 31415
L75047 31539
" />
<path d="M72984 30460
L72984 30584
" />
<path d="M72984 31415
L72984 31539
" />
<circle cx="75500" cy="53393.7" r="834.646" /> 
<path d="M74681 53393
L76318 53393
" />
<path d="M74681 53409
L76318 53409
" />
<path d="M74681 53425
L76318 53425
" />
<path d="M74682 53440
L76317 53440
" />
<path d="M74683 53456
L76316 53456
" />
<path d="M74684 53472
L75169 53472
" />
<path d="M75830 53472
L76315 53472
" />
<path d="M74686 53488
L75169 53488
" />
<path d="M75830 53488
L76313 53488
" />
<path d="M74688 53503
L75169 53503
" />
<path d="M75830 53503
L76311 53503
" />
<path d="M74690 53519
L75169 53519
" />
<path d="M75830 53519
L76309 53519
" />
<path d="M74692 53535
L75169 53535
" />
<path d="M75830 53535
L76307 53535
" />
<path d="M74696 53551
L75169 53551
" />
<path d="M75830 53551
L76303 53551
" />
<path d="M74699 53566
L75169 53566
" />
<path d="M75830 53566
L76300 53566
" />
<path d="M74702 53582
L75169 53582
" />
<path d="M75830 53582
L76297 53582
" />
<path d="M74706 53598
L75169 53598
" />
<path d="M75830 53598
L76293 53598
" />
<path d="M74710 53614
L75169 53614
" />
<path d="M75830 53614
L76289 53614
" />
<path d="M74714 53629
L75169 53629
" />
<path d="M75830 53629
L76285 53629
" />
<path d="M74719 53645
L75169 53645
" />
<path d="M75830 53645
L76280 53645
" />
<path d="M74725 53661
L75169 53661
" />
<path d="M75830 53661
L76274 53661
" />
<path d="M74730 53677
L75169 53677
" />
<path d="M75830 53677
L76269 53677
" />
<path d="M74736 53693
L75169 53693
" />
<path d="M75830 53693
L76263 53693
" />
<path d="M74742 53709
L75169 53709
" />
<path d="M75830 53709
L76257 53709
" />
<path d="M74749 53724
L75169 53724
" />
<path d="M75830 53724
L76250 53724
" />
<path d="M74756 53740
L75169 53740
" />
<path d="M75830 53740
L76243 53740
" />
<path d="M74763 53756
L75169 53756
" />
<path d="M75830 53756
L76236 53756
" />
<path d="M74771 53772
L75169 53772
" />
<path d="M75830 53772
L76228 53772
" />
<path d="M74779 53787
L75169 53787
" />
<path d="M75830 53787
L76220 53787
" />
<path d="M74788 53803
L75169 53803
" />
<path d="M75830 53803
L76211 53803
" />
<path d="M74797 53819
L75169 53819
" />
<path d="M75830 53819
L76202 53819
" />
<path d="M74807 53835
L75169 53835
" />
<path d="M75830 53835
L76192 53835
" />
<path d="M74816 53850
L75169 53850
" />
<path d="M75830 53850
L76183 53850
" />
<path d="M74827 53866
L75169 53866
" />
<path d="M75830 53866
L76172 53866
" />
<path d="M74838 53882
L75169 53882
" />
<path d="M75830 53882
L76161 53882
" />
<path d="M74850 53898
L75169 53898
" />
<path d="M75830 53898
L76149 53898
" />
<path d="M74862 53913
L75169 53913
" />
<path d="M75830 53913
L76137 53913
" />
<path d="M74875 53929
L75169 53929
" />
<path d="M75830 53929
L76124 53929
" />
<path d="M74888 53945
L75169 53945
" />
<path d="M75830 53945
L76111 53945
" />
<path d="M74903 53961
L75169 53961
" />
<path d="M75830 53961
L76096 53961
" />
<path d="M74918 53976
L75169 53976
" />
<path d="M75830 53976
L76081 53976
" />
<path d="M74933 53992
L75169 53992
" />
<path d="M75830 53992
L76066 53992
" />
<path d="M74950 54008
L75169 54008
" />
<path d="M75830 54008
L76049 54008
" />
<path d="M74968 54024
L75169 54024
" />
<path d="M75830 54024
L76031 54024
" />
<path d="M74986 54039
L75169 54039
" />
<path d="M75830 54039
L76013 54039
" />
<path d="M75006 54055
L75169 54055
" />
<path d="M75830 54055
L75993 54055
" />
<path d="M75027 54071
L75169 54071
" />
<path d="M75830 54071
L75972 54071
" />
<path d="M75050 54087
L75169 54087
" />
<path d="M75830 54087
L75949 54087
" />
<path d="M75074 54102
L75169 54102
" />
<path d="M75830 54102
L75925 54102
" />
<path d="M75101 54118
L75898 54118
" />
<path d="M75129 54134
L75870 54134
" />
<path d="M75161 54150
L75838 54150
" />
<path d="M75197 54165
L75802 54165
" />
<path d="M75238 54181
L75761 54181
" />
<path d="M75288 54197
L75711 54197
" />
<path d="M75354 54212
L75645 54212
" />
<path d="M75029 52500
L75029 52657
" />
<path d="M74950 52578
L75108 52578
" />
<circle cx="72893.7" cy="49000" r="834.646" /> 
<path d="M72893 49818
L72893 48181
" />
<path d="M72909 49818
L72909 48181
" />
<path d="M72925 49818
L72925 48181
" />
<path d="M72940 49817
L72940 48182
" />
<path d="M72956 49816
L72956 48183
" />
<path d="M72972 49815
L72972 49330
" />
<path d="M72972 48669
L72972 48184
" />
<path d="M72988 49813
L72988 49330
" />
<path d="M72988 48669
L72988 48186
" />
<path d="M73003 49811
L73003 49330
" />
<path d="M73003 48669
L73003 48188
" />
<path d="M73019 49809
L73019 49330
" />
<path d="M73019 48669
L73019 48190
" />
<path d="M73035 49807
L73035 49330
" />
<path d="M73035 48669
L73035 48192
" />
<path d="M73051 49803
L73051 49330
" />
<path d="M73051 48669
L73051 48196
" />
<path d="M73066 49800
L73066 49330
" />
<path d="M73066 48669
L73066 48199
" />
<path d="M73082 49797
L73082 49330
" />
<path d="M73082 48669
L73082 48202
" />
<path d="M73098 49793
L73098 49330
" />
<path d="M73098 48669
L73098 48206
" />
<path d="M73114 49789
L73114 49330
" />
<path d="M73114 48669
L73114 48210
" />
<path d="M73129 49785
L73129 49330
" />
<path d="M73129 48669
L73129 48214
" />
<path d="M73145 49780
L73145 49330
" />
<path d="M73145 48669
L73145 48219
" />
<path d="M73161 49774
L73161 49330
" />
<path d="M73161 48669
L73161 48225
" />
<path d="M73177 49769
L73177 49330
" />
<path d="M73177 48669
L73177 48230
" />
<path d="M73193 49763
L73193 49330
" />
<path d="M73193 48669
L73193 48236
" />
<path d="M73209 49757
L73209 49330
" />
<path d="M73209 48669
L73209 48242
" />
<path d="M73224 49750
L73224 49330
" />
<path d="M73224 48669
L73224 48249
" />
<path d="M73240 49743
L73240 49330
" />
<path d="M73240 48669
L73240 48256
" />
<path d="M73256 49736
L73256 49330
" />
<path d="M73256 48669
L73256 48263
" />
<path d="M73272 49728
L73272 49330
" />
<path d="M73272 48669
L73272 48271
" />
<path d="M73287 49720
L73287 49330
" />
<path d="M73287 48669
L73287 48279
" />
<path d="M73303 49711
L73303 49330
" />
<path d="M73303 48669
L73303 48288
" />
<path d="M73319 49702
L73319 49330
" />
<path d="M73319 48669
L73319 48297
" />
<path d="M73335 49692
L73335 49330
" />
<path d="M73335 48669
L73335 48307
" />
<path d="M73350 49683
L73350 49330
" />
<path d="M73350 48669
L73350 48316
" />
<path d="M73366 49672
L73366 49330
" />
<path d="M73366 48669
L73366 48327
" />
<path d="M73382 49661
L73382 49330
" />
<path d="M73382 48669
L73382 48338
" />
<path d="M73398 49649
L73398 49330
" />
<path d="M73398 48669
L73398 48350
" />
<path d="M73413 49637
L73413 49330
" />
<path d="M73413 48669
L73413 48362
" />
<path d="M73429 49624
L73429 49330
" />
<path d="M73429 48669
L73429 48375
" />
<path d="M73445 49611
L73445 49330
" />
<path d="M73445 48669
L73445 48388
" />
<path d="M73461 49596
L73461 49330
" />
<path d="M73461 48669
L73461 48403
" />
<path d="M73476 49581
L73476 49330
" />
<path d="M73476 48669
L73476 48418
" />
<path d="M73492 49566
L73492 49330
" />
<path d="M73492 48669
L73492 48433
" />
<path d="M73508 49549
L73508 49330
" />
<path d="M73508 48669
L73508 48450
" />
<path d="M73524 49531
L73524 49330
" />
<path d="M73524 48669
L73524 48468
" />
<path d="M73539 49513
L73539 49330
" />
<path d="M73539 48669
L73539 48486
" />
<path d="M73555 49493
L73555 49330
" />
<path d="M73555 48669
L73555 48506
" />
<path d="M73571 49472
L73571 49330
" />
<path d="M73571 48669
L73571 48527
" />
<path d="M73587 49449
L73587 49330
" />
<path d="M73587 48669
L73587 48550
" />
<path d="M73602 49425
L73602 49330
" />
<path d="M73602 48669
L73602 48574
" />
<path d="M73618 49398
L73618 48601
" />
<path d="M73634 49370
L73634 48629
" />
<path d="M73650 49338
L73650 48661
" />
<path d="M73665 49302
L73665 48697
" />
<path d="M73681 49261
L73681 48738
" />
<path d="M73697 49211
L73697 48788
" />
<path d="M73712 49145
L73712 48854
" />
<path d="M72000 49470
L72157 49470
" />
<path d="M72078 49549
L72078 49391
" />
<circle cx="77250" cy="28492.1" r="1031.5" /> 
<path d="M76234 28492
L78265 28492
" />
<path d="M76234 28507
L78265 28507
" />
<path d="M76234 28523
L78265 28523
" />
<path d="M76235 28539
L78264 28539
" />
<path d="M76235 28555
L78264 28555
" />
<path d="M76237 28570
L78262 28570
" />
<path d="M76238 28586
L76840 28586
" />
<path d="M77659 28586
L78261 28586
" />
<path d="M76240 28602
L76840 28602
" />
<path d="M77659 28602
L78259 28602
" />
<path d="M76241 28618
L76840 28618
" />
<path d="M77659 28618
L78258 28618
" />
<path d="M76243 28633
L76840 28633
" />
<path d="M77659 28633
L78256 28633
" />
<path d="M76246 28649
L76840 28649
" />
<path d="M77659 28649
L78253 28649
" />
<path d="M76248 28665
L76840 28665
" />
<path d="M77659 28665
L78251 28665
" />
<path d="M76251 28681
L76840 28681
" />
<path d="M77659 28681
L78248 28681
" />
<path d="M76254 28696
L76840 28696
" />
<path d="M77659 28696
L78245 28696
" />
<path d="M76257 28712
L76840 28712
" />
<path d="M77659 28712
L78242 28712
" />
<path d="M76261 28728
L76840 28728
" />
<path d="M77659 28728
L78238 28728
" />
<path d="M76265 28744
L76840 28744
" />
<path d="M77659 28744
L78234 28744
" />
<path d="M76269 28759
L76840 28759
" />
<path d="M77659 28759
L78230 28759
" />
<path d="M76273 28775
L76840 28775
" />
<path d="M77659 28775
L78226 28775
" />
<path d="M76278 28791
L76840 28791
" />
<path d="M77659 28791
L78221 28791
" />
<path d="M76283 28807
L76840 28807
" />
<path d="M77659 28807
L78216 28807
" />
<path d="M76288 28823
L76840 28823
" />
<path d="M77659 28823
L78211 28823
" />
<path d="M76294 28838
L76840 28838
" />
<path d="M77659 28838
L78205 28838
" />
<path d="M76299 28854
L76840 28854
" />
<path d="M77659 28854
L78200 28854
" />
<path d="M76305 28870
L76840 28870
" />
<path d="M77659 28870
L78194 28870
" />
<path d="M76312 28886
L76840 28886
" />
<path d="M77659 28886
L78187 28886
" />
<path d="M76318 28901
L76840 28901
" />
<path d="M77659 28901
L78181 28901
" />
<path d="M76325 28917
L76840 28917
" />
<path d="M77659 28917
L78174 28917
" />
<path d="M76333 28933
L76840 28933
" />
<path d="M77659 28933
L78166 28933
" />
<path d="M76340 28949
L76840 28949
" />
<path d="M77659 28949
L78159 28949
" />
<path d="M76348 28964
L76840 28964
" />
<path d="M77659 28964
L78151 28964
" />
<path d="M76357 28980
L76840 28980
" />
<path d="M77659 28980
L78142 28980
" />
<path d="M76365 28996
L76840 28996
" />
<path d="M77659 28996
L78134 28996
" />
<path d="M76374 29012
L76840 29012
" />
<path d="M77659 29012
L78125 29012
" />
<path d="M76383 29027
L76840 29027
" />
<path d="M77659 29027
L78116 29027
" />
<path d="M76393 29043
L76840 29043
" />
<path d="M77659 29043
L78106 29043
" />
<path d="M76403 29059
L76840 29059
" />
<path d="M77659 29059
L78096 29059
" />
<path d="M76414 29075
L76840 29075
" />
<path d="M77659 29075
L78085 29075
" />
<path d="M76425 29090
L76840 29090
" />
<path d="M77659 29090
L78074 29090
" />
<path d="M76437 29106
L76840 29106
" />
<path d="M77659 29106
L78062 29106
" />
<path d="M76448 29122
L76840 29122
" />
<path d="M77659 29122
L78051 29122
" />
<path d="M76461 29138
L76840 29138
" />
<path d="M77659 29138
L78038 29138
" />
<path d="M76474 29153
L76840 29153
" />
<path d="M77659 29153
L78025 29153
" />
<path d="M76487 29169
L76840 29169
" />
<path d="M77659 29169
L78012 29169
" />
<path d="M76501 29185
L76840 29185
" />
<path d="M77659 29185
L77998 29185
" />
<path d="M76516 29201
L76840 29201
" />
<path d="M77659 29201
L77983 29201
" />
<path d="M76531 29216
L76840 29216
" />
<path d="M77659 29216
L77968 29216
" />
<path d="M76547 29232
L76840 29232
" />
<path d="M77659 29232
L77952 29232
" />
<path d="M76563 29248
L76840 29248
" />
<path d="M77659 29248
L77936 29248
" />
<path d="M76581 29264
L76840 29264
" />
<path d="M77659 29264
L77918 29264
" />
<path d="M76599 29279
L76840 29279
" />
<path d="M77659 29279
L77900 29279
" />
<path d="M76618 29295
L76840 29295
" />
<path d="M77659 29295
L77881 29295
" />
<path d="M76638 29311
L76840 29311
" />
<path d="M77659 29311
L77861 29311
" />
<path d="M76659 29327
L76840 29327
" />
<path d="M77659 29327
L77840 29327
" />
<path d="M76681 29342
L76840 29342
" />
<path d="M77659 29342
L77818 29342
" />
<path d="M76705 29358
L76840 29358
" />
<path d="M77659 29358
L77794 29358
" />
<path d="M76730 29374
L76840 29374
" />
<path d="M77659 29374
L77769 29374
" />
<path d="M76757 29390
L76840 29390
" />
<path d="M77659 29390
L77742 29390
" />
<path d="M76786 29405
L77713 29405
" />
<path d="M76817 29421
L77682 29421
" />
<path d="M76851 29437
L77648 29437
" />
<path d="M76889 29453
L77610 29453
" />
<path d="M76933 29468
L77566 29468
" />
<path d="M76983 29484
L77516 29484
" />
<path d="M77046 29500
L77453 29500
" />
<path d="M77138 29516
L77361 29516
" />
<path d="M76669 27387
L76669 27584
" />
<path d="M76570 27486
L76767 27486
" />
<path d="M74950 50078
L75108 50078
" />
<path d="M75029 50000
L75029 50157
" />
<path d="M75354 51712
L75645 51712
" />
<path d="M75288 51697
L75711 51697
" />
<path d="M75238 51681
L75761 51681
" />
<path d="M75197 51665
L75802 51665
" />
<path d="M75161 51650
L75838 51650
" />
<path d="M75129 51634
L75870 51634
" />
<path d="M75101 51618
L75898 51618
" />
<path d="M75830 51602
L75925 51602
" />
<path d="M75074 51602
L75169 51602
" />
<path d="M75830 51587
L75949 51587
" />
<path d="M75050 51587
L75169 51587
" />
<path d="M75830 51571
L75972 51571
" />
<path d="M75027 51571
L75169 51571
" />
<path d="M75830 51555
L75993 51555
" />
<path d="M75006 51555
L75169 51555
" />
<path d="M75830 51539
L76013 51539
" />
<path d="M74986 51539
L75169 51539
" />
<path d="M75830 51524
L76031 51524
" />
<path d="M74968 51524
L75169 51524
" />
<path d="M75830 51508
L76049 51508
" />
<path d="M74950 51508
L75169 51508
" />
<path d="M75830 51492
L76066 51492
" />
<path d="M74933 51492
L75169 51492
" />
<path d="M75830 51476
L76081 51476
" />
<path d="M74918 51476
L75169 51476
" />
<path d="M75830 51461
L76096 51461
" />
<path d="M74903 51461
L75169 51461
" />
<path d="M75830 51445
L76111 51445
" />
<path d="M74888 51445
L75169 51445
" />
<path d="M75830 51429
L76124 51429
" />
<path d="M74875 51429
L75169 51429
" />
<path d="M75830 51413
L76137 51413
" />
<path d="M74862 51413
L75169 51413
" />
<path d="M75830 51398
L76149 51398
" />
<path d="M74850 51398
L75169 51398
" />
<path d="M75830 51382
L76161 51382
" />
<path d="M74838 51382
L75169 51382
" />
<path d="M75830 51366
L76172 51366
" />
<path d="M74827 51366
L75169 51366
" />
<path d="M75830 51350
L76183 51350
" />
<path d="M74816 51350
L75169 51350
" />
<path d="M75830 51335
L76192 51335
" />
<path d="M74807 51335
L75169 51335
" />
<path d="M75830 51319
L76202 51319
" />
<path d="M74797 51319
L75169 51319
" />
<path d="M75830 51303
L76211 51303
" />
<path d="M74788 51303
L75169 51303
" />
<path d="M75830 51287
L76220 51287
" />
<path d="M74779 51287
L75169 51287
" />
<path d="M75830 51272
L76228 51272
" />
<path d="M74771 51272
L75169 51272
" />
<path d="M75830 51256
L76236 51256
" />
<path d="M74763 51256
L75169 51256
" />
<path d="M75830 51240
L76243 51240
" />
<path d="M74756 51240
L75169 51240
" />
<path d="M75830 51224
L76250 51224
" />
<path d="M74749 51224
L75169 51224
" />
<path d="M75830 51209
L76257 51209
" />
<path d="M74742 51209
L75169 51209
" />
<path d="M75830 51193
L76263 51193
" />
<path d="M74736 51193
L75169 51193
" />
<path d="M75830 51177
L76269 51177
" />
<path d="M74730 51177
L75169 51177
" />
<path d="M75830 51161
L76274 51161
" />
<path d="M74725 51161
L75169 51161
" />
<path d="M75830 51145
L76280 51145
" />
<path d="M74719 51145
L75169 51145
" />
<path d="M75830 51129
L76285 51129
" />
<path d="M74714 51129
L75169 51129
" />
<path d="M75830 51114
L76289 51114
" />
<path d="M74710 51114
L75169 51114
" />
<path d="M75830 51098
L76293 51098
" />
<path d="M74706 51098
L75169 51098
" />
<path d="M75830 51082
L76297 51082
" />
<path d="M74702 51082
L75169 51082
" />
<path d="M75830 51066
L76300 51066
" />
<path d="M74699 51066
L75169 51066
" />
<path d="M75830 51051
L76303 51051
" />
<path d="M74696 51051
L75169 51051
" />
<path d="M75830 51035
L76307 51035
" />
<path d="M74692 51035
L75169 51035
" />
<path d="M75830 51019
L76309 51019
" />
<path d="M74690 51019
L75169 51019
" />
<path d="M75830 51003
L76311 51003
" />
<path d="M74688 51003
L75169 51003
" />
<path d="M75830 50988
L76313 50988
" />
<path d="M74686 50988
L75169 50988
" />
<path d="M75830 50972
L76315 50972
" />
<path d="M74684 50972
L75169 50972
" />
<path d="M74683 50956
L76316 50956
" />
<path d="M74682 50940
L76317 50940
" />
<path d="M74681 50925
L76318 50925
" />
<path d="M74681 50909
L76318 50909
" />
<path d="M74681 50893
L76318 50893
" />
<circle cx="75500" cy="50893.7" r="834.646" /> 
<path d="M73005 51000
L72913 51000
" />
<circle cx="73500" cy="51000" r="494.354" /> 
<path d="M75870 55000
L76244 55000
" />
<path d="M78129 55000
L77755 55000
" />
<path d="M76244 54637
L77755 54637
" />
<path d="M76244 55362
L76244 54637
" />
<path d="M77755 55362
L76244 55362
" />
<path d="M77755 54637
L77755 55362
" />
<path d="M77755 48637
L77755 49362
" />
<path d="M77755 49362
L76244 49362
" />
<path d="M76244 49362
L76244 48637
" />
<path d="M76244 48637
L77755 48637
" />
<path d="M78129 49000
L77755 49000
" />
<path d="M75870 49000
L76244 49000
" />
<path d="M72291 52271
L73708 52271
" />
<path d="M72276.2 52276.2 A1023.62 1023.62 0.0 0 0 73000 54023.6 " />
<path d="M73000 54023.6 A1023.62 1023.62 0.0 0 0 73723.8 52276.2 " />
<path d="M50022 32500
L50066 32500
" />
<circle cx="49500" cy="32500" r="522.193" /> 
<path d="M50022 36500
L50066 36500
" />
<circle cx="49500" cy="36500" r="522.193" /> 
<path d="M50500 34977
L50500 34933
" />
<circle cx="50500" cy="35500" r="522.193" /> 
<circle cx="49500" cy="40500" r="522.193" /> 
<path d="M50022 40500
L50066 40500
" />
<path d="M41500 44022
L41500 44066
" />
<circle cx="41500" cy="43500" r="522.193" /> 
<circle cx="63000" cy="42500" r="522.193" /> 
<path d="M63000 41977
L63000 41933
" />
<path d="M63000 48977
L63000 48933
" />
<circle cx="63000" cy="49500" r="522.193" /> 
<path d="M63000 47022
L63000 47066
" />
<circle cx="63000" cy="46500" r="522.193" /> 
<path d="M63000 54022
L63000 54066
" />
<circle cx="63000" cy="53500" r="522.193" /> 
<path d="M48000 54022
L48000 54066
" />
<circle cx="48000" cy="53500" r="522.193" /> 
<path d="M77000 47022
L77000 47066
" />
<circle cx="77000" cy="46500" r="522.193" /> 
<path d="M48000 48977
L48000 48933
" />
<circle cx="48000" cy="49500" r="522.193" /> 
<circle cx="77000" cy="42500" r="522.193" /> 
<path d="M77000 41977
L77000 41933
" />
<circle cx="56000" cy="42500" r="522.193" /> 
<path d="M56000 41977
L56000 41933
" />
<path d="M70000 48977
L70000 48933
" />
<circle cx="70000" cy="49500" r="522.193" /> 
<path d="M50500 30977
L50500 30933
" />
<circle cx="50500" cy="31500" r="522.193" /> 
<path d="M50500 18977
L50500 18933
" />
<circle cx="50500" cy="19500" r="522.193" /> 
<path d="M50022 24500
L50066 24500
" />
<circle cx="49500" cy="24500" r="522.193" /> 
<circle cx="70000" cy="42500" r="522.193" /> 
<path d="M70000 41977
L70000 41933
" />
<path d="M50500 22977
L50500 22933
" />
<circle cx="50500" cy="23500" r="522.193" /> 
<path d="M50022 28500
L50066 28500
" />
<circle cx="49500" cy="28500" r="522.193" /> 
<path d="M50500 26977
L50500 26933
" />
<circle cx="50500" cy="27500" r="522.193" /> 
<circle cx="49000" cy="43500" r="522.193" /> 
<path d="M49000 42977
L49000 42933
" />
<path d="M48000 47022
L48000 47066
" />
<circle cx="48000" cy="46500" r="522.193" /> 
<path d="M56000 48977
L56000 48933
" />
<circle cx="56000" cy="49500" r="522.193" /> 
<path d="M56000 47022
L56000 47066
" />
<circle cx="56000" cy="46500" r="522.193" /> 
<path d="M70000 54022
L70000 54066
" />
<circle cx="70000" cy="53500" r="522.193" /> 
<path d="M56000 54022
L56000 54066
" />
<circle cx="56000" cy="53500" r="522.193" /> 
<path d="M70000 47022
L70000 47066
" />
<circle cx="70000" cy="46500" r="522.193" /> 
<path d="M50022 20500
L50066 20500
" />
<circle cx="49500" cy="20500" r="522.193" /> 
<path d="M76976 49476
L79023 49476
" />
<path d="M76976 53500
L76976 49476
" />
<path d="M79023 54523
L79023 49476
" />
<path d="M76976 53500
L78000 53500
" />
<path d="M78000 53500
L78000 54523
" />
<path d="M78000 54523
L79023 54523
" />
<path d="M76976 54000
L76976 54523
" />
<path d="M76976 54523
L77500 54523
" />
<path d="M63893.7 38523.6 A393.701 393.701 0.0 0 0 63106.3 38523.6 " />
<path d="M63106 38523
L62456 38523
" />
<path d="M62456 38523
L62456 24476
" />
<path d="M62456 24476
L64543 24476
" />
<path d="M64543 24476
L64543 38523
" />
<path d="M64543 38523
L63893 38523
" />
<path d="M61476 38547
L61476 24452
" />
<path d="M61476 24452
L65523 24452
" />
<path d="M65523 24452
L65523 38547
" />
<path d="M65523 38547
L61476 38547
" />
</g>
<g style="fill:#000000; fill-opacity:0.0; 
stroke:#000000; stroke-width:59.0551; stroke-opacity:1; 
stroke-linecap:round; stroke-linejoin:round;">
<path d="M57799 38701
L57799 39020
L57781 39057
L57762 39076
L57724 39095
L57649 39095
L57612 39076
L57593 39057
L57574 39020
L57574 38701
" />
<path d="M57218 38701
L57293 38701
L57331 38720
L57350 38739
L57387 38795
L57406 38870
L57406 39020
L57387 39057
L57368 39076
L57331 39095
L57256 39095
L57218 39076
L57200 39057
L57181 39020
L57181 38926
L57200 38889
L57218 38870
L57256 38851
L57331 38851
L57368 38870
L57387 38889
L57406 38926
" />
<path d="M49928 38521
L49534 38521
L49534 38615
L49553 38671
L49590 38709
L49628 38728
L49703 38746
L49759 38746
L49834 38728
L49871 38709
L49909 38671
L49928 38615
L49928 38521
" />
<path d="M49571 38896
L49553 38915
L49534 38953
L49534 39046
L49553 39084
L49571 39103
L49609 39121
L49646 39121
L49703 39103
L49928 38878
L49928 39121
" />
<path d="M49665 39459
L49928 39459
" />
<path d="M49515 39365
L49796 39271
L49796 39515
" />
<path d="M50565 37697
L50565 37885
" />
<path d="M50678 37660
L50284 37791
L50678 37922
" />
<path d="M74299 22867
L74299 23185
L74281 23223
L74262 23242
L74224 23260
L74149 23260
L74112 23242
L74093 23223
L74074 23185
L74074 22867
" />
<path d="M73700 22867
L73887 22867
L73906 23054
L73887 23035
L73850 23017
L73756 23017
L73718 23035
L73700 23054
L73681 23092
L73681 23185
L73700 23223
L73718 23242
L73756 23260
L73850 23260
L73887 23242
L73906 23223
" />
<path d="M74081 30156
L74100 30175
L74156 30193
L74193 30193
L74250 30175
L74287 30137
L74306 30100
L74325 30025
L74325 29968
L74306 29893
L74287 29856
L74250 29818
L74193 29800
L74156 29800
L74100 29818
L74081 29837
" />
<path d="M73950 29800
L73687 29800
L73856 30193
" />
<path d="M76565 54140
L76584 54159
L76640 54178
L76678 54178
L76734 54159
L76771 54121
L76790 54084
L76809 54009
L76809 53953
L76790 53878
L76771 53840
L76734 53803
L76678 53784
L76640 53784
L76584 53803
L76565 53821
" />
<path d="M76415 53821
L76396 53803
L76359 53784
L76265 53784
L76228 53803
L76209 53821
L76190 53859
L76190 53896
L76209 53953
L76434 54178
L76190 54178
" />
<path d="M74065 48640
L74084 48659
L74140 48678
L74178 48678
L74234 48659
L74271 48621
L74290 48584
L74309 48509
L74309 48453
L74290 48378
L74271 48340
L74234 48303
L74178 48284
L74140 48284
L74084 48303
L74065 48321
" />
<path d="M73934 48284
L73690 48284
L73821 48434
L73765 48434
L73728 48453
L73709 48471
L73690 48509
L73690 48603
L73709 48640
L73728 48659
L73765 48678
L73878 48678
L73915 48659
L73934 48640
" />
<path d="M75914 28239
L75932 28220
L75951 28164
L75951 28126
L75932 28070
L75895 28032
L75857 28014
L75782 27995
L75726 27995
L75651 28014
L75614 28032
L75576 28070
L75558 28126
L75558 28164
L75576 28220
L75595 28239
" />
<path d="M75951 28613
L75951 28389
" />
<path d="M75951 28501
L75558 28501
L75614 28464
L75651 28426
L75670 28389
" />
<path d="M75951 28988
L75951 28763
" />
<path d="M75951 28876
L75558 28876
L75614 28838
L75651 28801
L75670 28763
" />
<path d="M76565 51640
L76584 51659
L76640 51678
L76678 51678
L76734 51659
L76771 51621
L76790 51584
L76809 51509
L76809 51453
L76790 51378
L76771 51340
L76734 51303
L76678 51284
L76640 51284
L76584 51303
L76565 51321
" />
<path d="M76190 51678
L76415 51678
" />
<path d="M76303 51678
L76303 51284
L76340 51340
L76378 51378
L76415 51396
" />
<path d="M73290 51678
L73290 51284
L73196 51284
L73140 51303
L73103 51340
L73084 51378
L73065 51453
L73065 51509
L73084 51584
L73103 51621
L73140 51659
L73196 51678
L73290 51678
" />
<path d="M72934 51284
L72690 51284
L72821 51434
L72765 51434
L72728 51453
L72709 51471
L72690 51509
L72690 51603
L72709 51640
L72728 51659
L72765 51678
L72878 51678
L72915 51659
L72934 51640
" />
<path d="M71904 51065
L71717 51065
" />
<path d="M71942 51178
L71811 50784
L71679 51178
" />
<path d="M77253 55178
L77384 54990
" />
<path d="M77478 55178
L77478 54784
L77328 54784
L77290 54803
L77271 54821
L77253 54859
L77253 54915
L77271 54953
L77290 54971
L77328 54990
L77478 54990
" />
<path d="M77121 54784
L76878 54784
L77009 54934
L76953 54934
L76915 54953
L76896 54971
L76878 55009
L76878 55103
L76896 55140
L76915 55159
L76953 55178
L77065 55178
L77103 55159
L77121 55140
" />
<path d="M76503 55178
L76728 55178
" />
<path d="M76615 55178
L76615 54784
L76653 54840
L76690 54878
L76728 54896
" />
<path d="M77253 49178
L77384 48990
" />
<path d="M77478 49178
L77478 48784
L77328 48784
L77290 48803
L77271 48821
L77253 48859
L77253 48915
L77271 48953
L77290 48971
L77328 48990
L77478 48990
" />
<path d="M77121 48784
L76878 48784
L77009 48934
L76953 48934
L76915 48953
L76896 48971
L76878 49009
L76878 49103
L76896 49140
L76915 49159
L76953 49178
L77065 49178
L77103 49159
L77121 49140
" />
<path d="M76634 48784
L76596 48784
L76559 48803
L76540 48821
L76521 48859
L76503 48934
L76503 49028
L76521 49103
L76540 49140
L76559 49159
L76596 49178
L76634 49178
L76671 49159
L76690 49140
L76709 49103
L76728 49028
L76728 48934
L76709 48859
L76690 48821
L76671 48803
L76634 48784
" />
<path d="M73299 51784
L73299 52103
L73281 52140
L73262 52159
L73224 52178
L73149 52178
L73112 52159
L73093 52140
L73074 52103
L73074 51784
" />
<path d="M72681 52178
L72906 52178
" />
<path d="M72793 52178
L72793 51784
L72831 51840
L72868 51878
L72906 51896
" />
<path d="M50478 31928
L50478 31534
L50384 31534
L50328 31553
L50290 31590
L50271 31628
L50253 31703
L50253 31759
L50271 31834
L50290 31871
L50328 31909
L50384 31928
L50478 31928
" />
<path d="M49878 31928
L50103 31928
" />
<path d="M49990 31928
L49990 31534
L50028 31590
L50065 31628
L50103 31646
" />
<path d="M49690 31928
L49615 31928
L49578 31909
L49559 31890
L49521 31834
L49503 31759
L49503 31609
L49521 31571
L49540 31553
L49578 31534
L49653 31534
L49690 31553
L49709 31571
L49728 31609
L49728 31703
L49709 31740
L49690 31759
L49653 31778
L49578 31778
L49540 31759
L49521 31740
L49503 31703
" />
<path d="M51302 32565
L51114 32565
" />
<path d="M51339 32678
L51208 32284
L51077 32678
" />
<path d="M50478 35928
L50478 35534
L50384 35534
L50328 35553
L50290 35590
L50271 35628
L50253 35703
L50253 35759
L50271 35834
L50290 35871
L50328 35909
L50384 35928
L50478 35928
" />
<path d="M50103 35571
L50084 35553
L50046 35534
L49953 35534
L49915 35553
L49896 35571
L49878 35609
L49878 35646
L49896 35703
L50121 35928
L49878 35928
" />
<path d="M49503 35928
L49728 35928
" />
<path d="M49615 35928
L49615 35534
L49653 35590
L49690 35628
L49728 35646
" />
<path d="M51302 36565
L51114 36565
" />
<path d="M51339 36678
L51208 36284
L51077 36678
" />
<path d="M49928 34521
L49534 34521
L49534 34615
L49553 34671
L49590 34709
L49628 34728
L49703 34746
L49759 34746
L49834 34728
L49871 34709
L49909 34671
L49928 34615
L49928 34521
" />
<path d="M49571 34896
L49553 34915
L49534 34953
L49534 35046
L49553 35084
L49571 35103
L49609 35121
L49646 35121
L49703 35103
L49928 34878
L49928 35121
" />
<path d="M49571 35271
L49553 35290
L49534 35328
L49534 35421
L49553 35459
L49571 35478
L49609 35496
L49646 35496
L49703 35478
L49928 35253
L49928 35496
" />
<path d="M50565 33697
L50565 33885
" />
<path d="M50678 33660
L50284 33791
L50678 33922
" />
<path d="M50478 39928
L50478 39534
L50384 39534
L50328 39553
L50290 39590
L50271 39628
L50253 39703
L50253 39759
L50271 39834
L50290 39871
L50328 39909
L50384 39928
L50478 39928
" />
<path d="M50103 39571
L50084 39553
L50046 39534
L49953 39534
L49915 39553
L49896 39571
L49878 39609
L49878 39646
L49896 39703
L50121 39928
L49878 39928
" />
<path d="M49746 39534
L49503 39534
L49634 39684
L49578 39684
L49540 39703
L49521 39721
L49503 39759
L49503 39853
L49521 39890
L49540 39909
L49578 39928
L49690 39928
L49728 39909
L49746 39890
" />
<path d="M51302 40565
L51114 40565
" />
<path d="M51339 40678
L51208 40284
L51077 40678
" />
<path d="M40762 43521
L40368 43521
L40368 43615
L40387 43671
L40424 43709
L40462 43728
L40537 43746
L40593 43746
L40668 43728
L40705 43709
L40743 43671
L40762 43615
L40762 43521
" />
<path d="M40762 44121
L40762 43896
" />
<path d="M40762 44009
L40368 44009
L40424 43971
L40462 43934
L40480 43896
" />
<path d="M40499 44459
L40762 44459
" />
<path d="M40349 44365
L40630 44271
L40630 44515
" />
<path d="M41565 45114
L41565 45302
" />
<path d="M41678 45077
L41284 45208
L41678 45339
" />
<path d="M64093 41521
L63700 41521
L63700 41615
L63719 41671
L63756 41709
L63794 41728
L63869 41746
L63925 41746
L64000 41728
L64037 41709
L64075 41671
L64093 41615
L64093 41521
" />
<path d="M63737 41896
L63719 41915
L63700 41953
L63700 42046
L63719 42084
L63737 42103
L63775 42121
L63812 42121
L63869 42103
L64093 41878
L64093 42121
" />
<path d="M63700 42478
L63700 42290
L63887 42271
L63869 42290
L63850 42328
L63850 42421
L63869 42459
L63887 42478
L63925 42496
L64019 42496
L64056 42478
L64075 42459
L64093 42421
L64093 42328
L64075 42290
L64056 42271
" />
<path d="M63065 40697
L63065 40885
" />
<path d="M63178 40660
L62784 40791
L63178 40922
" />
<path d="M64093 48521
L63700 48521
L63700 48615
L63719 48671
L63756 48709
L63794 48728
L63869 48746
L63925 48746
L64000 48728
L64037 48709
L64075 48671
L64093 48615
L64093 48521
" />
<path d="M63737 48896
L63719 48915
L63700 48953
L63700 49046
L63719 49084
L63737 49103
L63775 49121
L63812 49121
L63869 49103
L64093 48878
L64093 49121
" />
<path d="M63700 49459
L63700 49384
L63719 49346
L63737 49328
L63794 49290
L63869 49271
L64019 49271
L64056 49290
L64075 49309
L64093 49346
L64093 49421
L64075 49459
L64056 49478
L64019 49496
L63925 49496
L63887 49478
L63869 49459
L63850 49421
L63850 49346
L63869 49309
L63887 49290
L63925 49271
" />
<path d="M63065 47697
L63065 47885
" />
<path d="M63178 47660
L62784 47791
L63178 47922
" />
<path d="M62262 46521
L61868 46521
L61868 46615
L61887 46671
L61924 46709
L61962 46728
L62037 46746
L62093 46746
L62168 46728
L62205 46709
L62243 46671
L62262 46615
L62262 46521
" />
<path d="M61906 46896
L61887 46915
L61868 46953
L61868 47046
L61887 47084
L61906 47103
L61943 47121
L61980 47121
L62037 47103
L62262 46878
L62262 47121
" />
<path d="M61868 47253
L61868 47515
L62262 47346
" />
<path d="M63065 48114
L63065 48302
" />
<path d="M63178 48077
L62784 48208
L63178 48339
" />
<path d="M62262 53521
L61868 53521
L61868 53615
L61887 53671
L61924 53709
L61962 53728
L62037 53746
L62093 53746
L62168 53728
L62205 53709
L62243 53671
L62262 53615
L62262 53521
" />
<path d="M61906 53896
L61887 53915
L61868 53953
L61868 54046
L61887 54084
L61906 54103
L61943 54121
L61980 54121
L62037 54103
L62262 53878
L62262 54121
" />
<path d="M62037 54346
L62018 54309
L61999 54290
L61962 54271
L61943 54271
L61906 54290
L61887 54309
L61868 54346
L61868 54421
L61887 54459
L61906 54478
L61943 54496
L61962 54496
L61999 54478
L62018 54459
L62037 54421
L62037 54346
L62055 54309
L62074 54290
L62112 54271
L62187 54271
L62224 54290
L62243 54309
L62262 54346
L62262 54421
L62243 54459
L62224 54478
L62187 54496
L62112 54496
L62074 54478
L62055 54459
L62037 54421
" />
<path d="M63065 55114
L63065 55302
" />
<path d="M63178 55077
L62784 55208
L63178 55339
" />
<path d="M47262 53521
L46868 53521
L46868 53615
L46887 53671
L46924 53709
L46962 53728
L47037 53746
L47093 53746
L47168 53728
L47205 53709
L47243 53671
L47262 53615
L47262 53521
" />
<path d="M46868 53878
L46868 54121
L47018 53990
L47018 54046
L47037 54084
L47055 54103
L47093 54121
L47187 54121
L47224 54103
L47243 54084
L47262 54046
L47262 53934
L47243 53896
L47224 53878
" />
<path d="M46868 54459
L46868 54384
L46887 54346
L46906 54328
L46962 54290
L47037 54271
L47187 54271
L47224 54290
L47243 54309
L47262 54346
L47262 54421
L47243 54459
L47224 54478
L47187 54496
L47093 54496
L47055 54478
L47037 54459
L47018 54421
L47018 54346
L47037 54309
L47055 54290
L47093 54271
" />
<path d="M48065 55114
L48065 55302
" />
<path d="M48178 55077
L47784 55208
L48178 55339
" />
<path d="M76262 46521
L75868 46521
L75868 46615
L75887 46671
L75924 46709
L75962 46728
L76037 46746
L76093 46746
L76168 46728
L76205 46709
L76243 46671
L76262 46615
L76262 46521
" />
<path d="M75868 46878
L75868 47121
L76018 46990
L76018 47046
L76037 47084
L76055 47103
L76093 47121
L76187 47121
L76224 47103
L76243 47084
L76262 47046
L76262 46934
L76243 46896
L76224 46878
" />
<path d="M75868 47478
L75868 47290
L76055 47271
L76037 47290
L76018 47328
L76018 47421
L76037 47459
L76055 47478
L76093 47496
L76187 47496
L76224 47478
L76243 47459
L76262 47421
L76262 47328
L76243 47290
L76224 47271
" />
<path d="M77065 48114
L77065 48302
" />
<path d="M77178 48077
L76784 48208
L77178 48339
" />
<path d="M49093 48521
L48700 48521
L48700 48615
L48719 48671
L48756 48709
L48794 48728
L48869 48746
L48925 48746
L49000 48728
L49037 48709
L49075 48671
L49093 48615
L49093 48521
" />
<path d="M48700 48878
L48700 49121
L48850 48990
L48850 49046
L48869 49084
L48887 49103
L48925 49121
L49019 49121
L49056 49103
L49075 49084
L49093 49046
L49093 48934
L49075 48896
L49056 48878
" />
<path d="M48831 49459
L49093 49459
" />
<path d="M48681 49365
L48962 49271
L48962 49515
" />
<path d="M48065 47697
L48065 47885
" />
<path d="M48178 47660
L47784 47791
L48178 47922
" />
<path d="M78093 41521
L77700 41521
L77700 41615
L77719 41671
L77756 41709
L77794 41728
L77869 41746
L77925 41746
L78000 41728
L78037 41709
L78075 41671
L78093 41615
L78093 41521
" />
<path d="M77700 41878
L77700 42121
L77850 41990
L77850 42046
L77869 42084
L77887 42103
L77925 42121
L78019 42121
L78056 42103
L78075 42084
L78093 42046
L78093 41934
L78075 41896
L78056 41878
" />
<path d="M77700 42253
L77700 42496
L77850 42365
L77850 42421
L77869 42459
L77887 42478
L77925 42496
L78019 42496
L78056 42478
L78075 42459
L78093 42421
L78093 42309
L78075 42271
L78056 42253
" />
<path d="M77065 40697
L77065 40885
" />
<path d="M77178 40660
L76784 40791
L77178 40922
" />
<path d="M57093 41521
L56700 41521
L56700 41615
L56719 41671
L56756 41709
L56794 41728
L56869 41746
L56925 41746
L57000 41728
L57037 41709
L57075 41671
L57093 41615
L57093 41521
" />
<path d="M57093 42121
L57093 41896
" />
<path d="M57093 42009
L56700 42009
L56756 41971
L56794 41934
L56812 41896
" />
<path d="M56700 42478
L56700 42290
L56887 42271
L56869 42290
L56850 42328
L56850 42421
L56869 42459
L56887 42478
L56925 42496
L57019 42496
L57056 42478
L57075 42459
L57093 42421
L57093 42328
L57075 42290
L57056 42271
" />
<path d="M56065 40697
L56065 40885
" />
<path d="M56178 40660
L55784 40791
L56178 40922
" />
<path d="M71093 48521
L70700 48521
L70700 48615
L70719 48671
L70756 48709
L70794 48728
L70869 48746
L70925 48746
L71000 48728
L71037 48709
L71075 48671
L71093 48615
L71093 48521
" />
<path d="M70700 48878
L70700 49121
L70850 48990
L70850 49046
L70869 49084
L70887 49103
L70925 49121
L71019 49121
L71056 49103
L71075 49084
L71093 49046
L71093 48934
L71075 48896
L71056 48878
" />
<path d="M70700 49365
L70700 49403
L70719 49440
L70737 49459
L70775 49478
L70850 49496
L70944 49496
L71019 49478
L71056 49459
L71075 49440
L71093 49403
L71093 49365
L71075 49328
L71056 49309
L71019 49290
L70944 49271
L70850 49271
L70775 49290
L70737 49309
L70719 49328
L70700 49365
" />
<path d="M70065 47697
L70065 47885
" />
<path d="M70178 47660
L69784 47791
L70178 47922
" />
<path d="M51428 30521
L51034 30521
L51034 30615
L51053 30671
L51090 30709
L51128 30728
L51203 30746
L51259 30746
L51334 30728
L51371 30709
L51409 30671
L51428 30615
L51428 30521
" />
<path d="M51071 30896
L51053 30915
L51034 30953
L51034 31046
L51053 31084
L51071 31103
L51109 31121
L51146 31121
L51203 31103
L51428 30878
L51428 31121
" />
<path d="M51034 31365
L51034 31403
L51053 31440
L51071 31459
L51109 31478
L51184 31496
L51278 31496
L51353 31478
L51390 31459
L51409 31440
L51428 31403
L51428 31365
L51409 31328
L51390 31309
L51353 31290
L51278 31271
L51184 31271
L51109 31290
L51071 31309
L51053 31328
L51034 31365
" />
<path d="M50565 29697
L50565 29885
" />
<path d="M50678 29660
L50284 29791
L50678 29922
" />
<path d="M51428 18709
L51034 18709
L51034 18803
L51053 18859
L51090 18896
L51128 18915
L51203 18934
L51259 18934
L51334 18915
L51371 18896
L51409 18859
L51428 18803
L51428 18709
" />
<path d="M51034 19065
L51034 19328
L51428 19159
" />
<path d="M50565 17697
L50565 17885
" />
<path d="M50678 17660
L50284 17791
L50678 17922
" />
<path d="M50290 23928
L50290 23534
L50196 23534
L50140 23553
L50103 23590
L50084 23628
L50065 23703
L50065 23759
L50084 23834
L50103 23871
L50140 23909
L50196 23928
L50290 23928
" />
<path d="M49840 23703
L49878 23684
L49896 23665
L49915 23628
L49915 23609
L49896 23571
L49878 23553
L49840 23534
L49765 23534
L49728 23553
L49709 23571
L49690 23609
L49690 23628
L49709 23665
L49728 23684
L49765 23703
L49840 23703
L49878 23721
L49896 23740
L49915 23778
L49915 23853
L49896 23890
L49878 23909
L49840 23928
L49765 23928
L49728 23909
L49709 23890
L49690 23853
L49690 23778
L49709 23740
L49728 23721
L49765 23703
" />
<path d="M51302 24565
L51114 24565
" />
<path d="M51339 24678
L51208 24284
L51077 24678
" />
<path d="M71093 41521
L70700 41521
L70700 41615
L70719 41671
L70756 41709
L70794 41728
L70869 41746
L70925 41746
L71000 41728
L71037 41709
L71075 41671
L71093 41615
L71093 41521
" />
<path d="M70737 41896
L70719 41915
L70700 41953
L70700 42046
L70719 42084
L70737 42103
L70775 42121
L70812 42121
L70869 42103
L71093 41878
L71093 42121
" />
<path d="M71093 42309
L71093 42384
L71075 42421
L71056 42440
L71000 42478
L70925 42496
L70775 42496
L70737 42478
L70719 42459
L70700 42421
L70700 42346
L70719 42309
L70737 42290
L70775 42271
L70869 42271
L70906 42290
L70925 42309
L70944 42346
L70944 42421
L70925 42459
L70906 42478
L70869 42496
" />
<path d="M70065 40697
L70065 40885
" />
<path d="M70178 40660
L69784 40791
L70178 40922
" />
<path d="M51428 22709
L51034 22709
L51034 22803
L51053 22859
L51090 22896
L51128 22915
L51203 22934
L51259 22934
L51334 22915
L51371 22896
L51409 22859
L51428 22803
L51428 22709
" />
<path d="M51428 23121
L51428 23196
L51409 23234
L51390 23253
L51334 23290
L51259 23309
L51109 23309
L51071 23290
L51053 23271
L51034 23234
L51034 23159
L51053 23121
L51071 23103
L51109 23084
L51203 23084
L51240 23103
L51259 23121
L51278 23159
L51278 23234
L51259 23271
L51240 23290
L51203 23309
" />
<path d="M50565 21697
L50565 21885
" />
<path d="M50678 21660
L50284 21791
L50678 21922
" />
<path d="M50478 27928
L50478 27534
L50384 27534
L50328 27553
L50290 27590
L50271 27628
L50253 27703
L50253 27759
L50271 27834
L50290 27871
L50328 27909
L50384 27928
L50478 27928
" />
<path d="M49878 27928
L50103 27928
" />
<path d="M49990 27928
L49990 27534
L50028 27590
L50065 27628
L50103 27646
" />
<path d="M49634 27534
L49596 27534
L49559 27553
L49540 27571
L49521 27609
L49503 27684
L49503 27778
L49521 27853
L49540 27890
L49559 27909
L49596 27928
L49634 27928
L49671 27909
L49690 27890
L49709 27853
L49728 27778
L49728 27684
L49709 27609
L49690 27571
L49671 27553
L49634 27534
" />
<path d="M51302 28565
L51114 28565
" />
<path d="M51339 28678
L51208 28284
L51077 28678
" />
<path d="M51428 26521
L51034 26521
L51034 26615
L51053 26671
L51090 26709
L51128 26728
L51203 26746
L51259 26746
L51334 26728
L51371 26709
L51409 26671
L51428 26615
L51428 26521
" />
<path d="M51428 27121
L51428 26896
" />
<path d="M51428 27009
L51034 27009
L51090 26971
L51128 26934
L51146 26896
" />
<path d="M51428 27496
L51428 27271
" />
<path d="M51428 27384
L51034 27384
L51090 27346
L51128 27309
L51146 27271
" />
<path d="M50565 25697
L50565 25885
" />
<path d="M50678 25660
L50284 25791
L50678 25922
" />
<path d="M50093 42521
L49700 42521
L49700 42615
L49719 42671
L49756 42709
L49794 42728
L49869 42746
L49925 42746
L50000 42728
L50037 42709
L50075 42671
L50093 42615
L50093 42521
" />
<path d="M50093 43121
L50093 42896
" />
<path d="M50093 43009
L49700 43009
L49756 42971
L49794 42934
L49812 42896
" />
<path d="M49737 43271
L49719 43290
L49700 43328
L49700 43421
L49719 43459
L49737 43478
L49775 43496
L49812 43496
L49869 43478
L50093 43253
L50093 43496
" />
<path d="M49065 41697
L49065 41885
" />
<path d="M49178 41660
L48784 41791
L49178 41922
" />
<path d="M47262 46521
L46868 46521
L46868 46615
L46887 46671
L46924 46709
L46962 46728
L47037 46746
L47093 46746
L47168 46728
L47205 46709
L47243 46671
L47262 46615
L47262 46521
" />
<path d="M47262 47121
L47262 46896
" />
<path d="M47262 47009
L46868 47009
L46924 46971
L46962 46934
L46980 46896
" />
<path d="M46868 47253
L46868 47496
L47018 47365
L47018 47421
L47037 47459
L47055 47478
L47093 47496
L47187 47496
L47224 47478
L47243 47459
L47262 47421
L47262 47309
L47243 47271
L47224 47253
" />
<path d="M48065 48114
L48065 48302
" />
<path d="M48178 48077
L47784 48208
L48178 48339
" />
<path d="M57093 48521
L56700 48521
L56700 48615
L56719 48671
L56756 48709
L56794 48728
L56869 48746
L56925 48746
L57000 48728
L57037 48709
L57075 48671
L57093 48615
L57093 48521
" />
<path d="M57093 49121
L57093 48896
" />
<path d="M57093 49009
L56700 49009
L56756 48971
L56794 48934
L56812 48896
" />
<path d="M56700 49459
L56700 49384
L56719 49346
L56737 49328
L56794 49290
L56869 49271
L57019 49271
L57056 49290
L57075 49309
L57093 49346
L57093 49421
L57075 49459
L57056 49478
L57019 49496
L56925 49496
L56887 49478
L56869 49459
L56850 49421
L56850 49346
L56869 49309
L56887 49290
L56925 49271
" />
<path d="M56065 47697
L56065 47885
" />
<path d="M56178 47660
L55784 47791
L56178 47922
" />
<path d="M55262 46521
L54868 46521
L54868 46615
L54887 46671
L54924 46709
L54962 46728
L55037 46746
L55093 46746
L55168 46728
L55205 46709
L55243 46671
L55262 46615
L55262 46521
" />
<path d="M55262 47121
L55262 46896
" />
<path d="M55262 47009
L54868 47009
L54924 46971
L54962 46934
L54980 46896
" />
<path d="M54868 47253
L54868 47515
L55262 47346
" />
<path d="M56065 48114
L56065 48302
" />
<path d="M56178 48077
L55784 48208
L56178 48339
" />
<path d="M69262 53521
L68868 53521
L68868 53615
L68887 53671
L68924 53709
L68962 53728
L69037 53746
L69093 53746
L69168 53728
L69205 53709
L69243 53671
L69262 53615
L69262 53521
" />
<path d="M68868 53878
L68868 54121
L69018 53990
L69018 54046
L69037 54084
L69055 54103
L69093 54121
L69187 54121
L69224 54103
L69243 54084
L69262 54046
L69262 53934
L69243 53896
L69224 53878
" />
<path d="M68906 54271
L68887 54290
L68868 54328
L68868 54421
L68887 54459
L68906 54478
L68943 54496
L68980 54496
L69037 54478
L69262 54253
L69262 54496
" />
<path d="M70065 55114
L70065 55302
" />
<path d="M70178 55077
L69784 55208
L70178 55339
" />
<path d="M55262 53521
L54868 53521
L54868 53615
L54887 53671
L54924 53709
L54962 53728
L55037 53746
L55093 53746
L55168 53728
L55205 53709
L55243 53671
L55262 53615
L55262 53521
" />
<path d="M55262 54121
L55262 53896
" />
<path d="M55262 54009
L54868 54009
L54924 53971
L54962 53934
L54980 53896
" />
<path d="M55037 54346
L55018 54309
L54999 54290
L54962 54271
L54943 54271
L54906 54290
L54887 54309
L54868 54346
L54868 54421
L54887 54459
L54906 54478
L54943 54496
L54962 54496
L54999 54478
L55018 54459
L55037 54421
L55037 54346
L55055 54309
L55074 54290
L55112 54271
L55187 54271
L55224 54290
L55243 54309
L55262 54346
L55262 54421
L55243 54459
L55224 54478
L55187 54496
L55112 54496
L55074 54478
L55055 54459
L55037 54421
" />
<path d="M56065 55114
L56065 55302
" />
<path d="M56178 55077
L55784 55208
L56178 55339
" />
<path d="M69262 46521
L68868 46521
L68868 46615
L68887 46671
L68924 46709
L68962 46728
L69037 46746
L69093 46746
L69168 46728
L69205 46709
L69243 46671
L69262 46615
L69262 46521
" />
<path d="M68868 46878
L68868 47121
L69018 46990
L69018 47046
L69037 47084
L69055 47103
L69093 47121
L69187 47121
L69224 47103
L69243 47084
L69262 47046
L69262 46934
L69243 46896
L69224 46878
" />
<path d="M69262 47496
L69262 47271
" />
<path d="M69262 47384
L68868 47384
L68924 47346
L68962 47309
L68980 47271
" />
<path d="M70065 48114
L70065 48302
" />
<path d="M70178 48077
L69784 48208
L70178 48339
" />
<path d="M50290 19928
L50290 19534
L50196 19534
L50140 19553
L50103 19590
L50084 19628
L50065 19703
L50065 19759
L50084 19834
L50103 19871
L50140 19909
L50196 19928
L50290 19928
" />
<path d="M49728 19534
L49803 19534
L49840 19553
L49859 19571
L49896 19628
L49915 19703
L49915 19853
L49896 19890
L49878 19909
L49840 19928
L49765 19928
L49728 19909
L49709 19890
L49690 19853
L49690 19759
L49709 19721
L49728 19703
L49765 19684
L49840 19684
L49878 19703
L49896 19721
L49915 19759
" />
<path d="M51302 20565
L51114 20565
" />
<path d="M51339 20678
L51208 20284
L51077 20678
" />
<path d="M76631 53784
L76631 54065
L76649 54121
L76687 54159
L76743 54178
L76781 54178
" />
<path d="M76425 54178
L76350 54178
L76312 54159
L76293 54140
L76256 54084
L76237 54009
L76237 53859
L76256 53821
L76275 53803
L76312 53784
L76387 53784
L76425 53803
L76443 53821
L76462 53859
L76462 53953
L76443 53990
L76425 54009
L76387 54028
L76312 54028
L76275 54009
L76256 53990
L76237 53953
" />
<path d="M63715 39217
L63396 39217
L63359 39198
L63340 39179
L63321 39142
L63321 39067
L63340 39029
L63359 39011
L63396 38992
L63715 38992
" />
<path d="M63678 38823
L63696 38804
L63715 38767
L63715 38673
L63696 38636
L63678 38617
L63640 38598
L63603 38598
L63546 38617
L63321 38842
L63321 38598
" />
</g> 
</svg>
