  0
SECTION
  2
HEADER
  9
$ANGBASE
  50
0.0
  9
$ANGDIR
  70
  1
  9
$MEASUREMENT
  70
0
  0
ENDSEC
  0
SECTION
  2
TABLES
  0
TABLE
  2
LTYPE
  70
4
  0
LTYPE
  5
40F
  2
CONTINUOUS
  70
0
  3
Solid line
  72
65
  73
0
  40
0.0
  0
LTYPE
  5
410
  2
DASHDOT
 70
0
  3
Dash Dot ____ _ ____ _
 72
65
 73
4
 40
2.0
 49
1.25
 49
-0.25
 49
0.25
 49
-0.25
  0
LTYPE
  5
411
  2
DASHED
 70
0
  3
Dashed __ __ __ __ __
 72
65
 73
2
 40
0.75
 49
0.5
 49
-0.25
  0
LTYPE
  5
43B
  2
DOTTED
 70
0
  3
Dotted .  .  .  .
 72
65
 73
2
 40
0.2
 49
0.0
 49
-0.2
  0
ENDTAB
  0
TABLE
  2
STYLE
  70
4
  0
STYLE
  2
KICAD
  70
0
  40
0
  41
1
  42
1
  50
0
  71
0
  3
isocp.shx
  0
STYLE
  2
KICADB
  70
0
  40
0
  41
1
  42
1
  50
0
  71
0
  3
isocp.shx
  0
STYLE
  2
KICADI
  70
0
  40
0
  41
1
  42
1
  50
15
  71
0
  3
isocp.shx
  0
STYLE
  2
KICADBI
  70
0
  40
0
  41
1
  42
1
  50
15
  71
0
  3
isocp.shx
  0
ENDTAB
  0
TABLE
  2
LAYER
  70
30
  0
LAYER
  2
BLACK
  70
0
  62
7
  6
CONTINUOUS
  0
LAYER
  2
GRAY1
  70
0
  62
251
  6
CONTINUOUS
  0
LAYER
  2
GRAY2
  70
0
  62
8
  6
CONTINUOUS
  0
LAYER
  2
GRAY3
  70
0
  62
9
  6
CONTINUOUS
  0
LAYER
  2
WHITE
  70
0
  62
7
  6
CONTINUOUS
  0
LAYER
  2
LYELLOW
  70
0
  62
51
  6
CONTINUOUS
  0
LAYER
  2
BLUE1
  70
0
  62
178
  6
CONTINUOUS
  0
LAYER
  2
GREEN1
  70
0
  62
98
  6
CONTINUOUS
  0
LAYER
  2
CYAN1
  70
0
  62
138
  6
CONTINUOUS
  0
LAYER
  2
RED1
  70
0
  62
18
  6
CONTINUOUS
  0
LAYER
  2
MAGENTA1
  70
0
  62
228
  6
CONTINUOUS
  0
LAYER
  2
BROWN1
  70
0
  62
58
  6
CONTINUOUS
  0
LAYER
  2
BLUE2
  70
0
  62
5
  6
CONTINUOUS
  0
LAYER
  2
GREEN2
  70
0
  62
3
  6
CONTINUOUS
  0
LAYER
  2
CYAN2
  70
0
  62
4
  6
CONTINUOUS
  0
LAYER
  2
RED2
  70
0
  62
1
  6
CONTINUOUS
  0
LAYER
  2
MAGENTA2
  70
0
  62
6
  6
CONTINUOUS
  0
LAYER
  2
BROWN2
  70
0
  62
54
  6
CONTINUOUS
  0
LAYER
  2
BLUE3
  70
0
  62
171
  6
CONTINUOUS
  0
LAYER
  2
GREEN3
  70
0
  62
91
  6
CONTINUOUS
  0
LAYER
  2
CYAN3
  70
0
  62
131
  6
CONTINUOUS
  0
LAYER
  2
RED3
  70
0
  62
11
  6
CONTINUOUS
  0
LAYER
  2
MAGENTA3
  70
0
  62
221
  6
CONTINUOUS
  0
LAYER
  2
YELLOW3
  70
0
  62
2
  6
CONTINUOUS
  0
LAYER
  2
BLUE4
  70
0
  62
5
  6
CONTINUOUS
  0
LAYER
  2
GREEN4
  70
0
  62
3
  6
CONTINUOUS
  0
LAYER
  2
CYAN4
  70
0
  62
4
  6
CONTINUOUS
  0
LAYER
  2
RED4
  70
0
  62
1
  6
CONTINUOUS
  0
LAYER
  2
MAGENTA4
  70
0
  62
6
  6
CONTINUOUS
  0
LAYER
  2
YELLOW4
  70
0
  62
2
  6
CONTINUOUS
  0
ENDTAB
  0
ENDSEC
  0
SECTION
  2
ENTITIES
0
LINE
8
BLACK
6
CONTINUOUS
10
204.155
20
-144.03
11
204.147
21
-144.074
0
LINE
8
BLACK
6
CONTINUOUS
10
204.147
20
-144.074
11
204.125
21
-144.112
0
LINE
8
BLACK
6
CONTINUOUS
10
204.125
20
-144.112
11
204.11
21
-144.154
0
LINE
8
BLACK
6
CONTINUOUS
10
204.11
20
-144.154
11
204.081
21
-144.188
0
LINE
8
BLACK
6
CONTINUOUS
10
204.081
20
-144.188
11
204.059
21
-144.226
0
LINE
8
BLACK
6
CONTINUOUS
10
204.059
20
-144.226
11
204.025
21
-144.255
0
LINE
8
BLACK
6
CONTINUOUS
10
204.025
20
-144.255
11
203.996
21
-144.289
0
LINE
8
BLACK
6
CONTINUOUS
10
203.996
20
-144.289
11
203.958
21
-144.311
0
LINE
8
BLACK
6
CONTINUOUS
10
203.958
20
-144.311
11
203.924
21
-144.34
0
LINE
8
BLACK
6
CONTINUOUS
10
203.924
20
-144.34
11
203.882
21
-144.355
0
LINE
8
BLACK
6
CONTINUOUS
10
203.882
20
-144.355
11
203.844
21
-144.377
0
LINE
8
BLACK
6
CONTINUOUS
10
203.844
20
-144.377
11
203.8
21
-144.385
0
LINE
8
BLACK
6
CONTINUOUS
10
203.8
20
-144.385
11
203.758
21
-144.4
0
LINE
8
BLACK
6
CONTINUOUS
10
203.758
20
-144.4
11
103.582
21
-144.4
0
LINE
8
BLACK
6
CONTINUOUS
10
103.582
20
-144.4
11
103.54
21
-144.385
0
LINE
8
BLACK
6
CONTINUOUS
10
103.54
20
-144.385
11
103.496
21
-144.377
0
LINE
8
BLACK
6
CONTINUOUS
10
103.496
20
-144.377
11
103.458
21
-144.355
0
LINE
8
BLACK
6
CONTINUOUS
10
103.458
20
-144.355
11
103.416
21
-144.34
0
LINE
8
BLACK
6
CONTINUOUS
10
103.416
20
-144.34
11
103.382
21
-144.311
0
LINE
8
BLACK
6
CONTINUOUS
10
103.382
20
-144.311
11
103.344
21
-144.289
0
LINE
8
BLACK
6
CONTINUOUS
10
103.344
20
-144.289
11
103.315
21
-144.255
0
LINE
8
BLACK
6
CONTINUOUS
10
103.315
20
-144.255
11
103.281
21
-144.226
0
LINE
8
BLACK
6
CONTINUOUS
10
103.281
20
-144.226
11
103.259
21
-144.188
0
LINE
8
BLACK
6
CONTINUOUS
10
103.259
20
-144.188
11
103.23
21
-144.154
0
LINE
8
BLACK
6
CONTINUOUS
10
103.23
20
-144.154
11
103.215
21
-144.112
0
LINE
8
BLACK
6
CONTINUOUS
10
103.215
20
-144.112
11
103.193
21
-144.074
0
LINE
8
BLACK
6
CONTINUOUS
10
103.193
20
-144.074
11
103.185
21
-144.03
0
LINE
8
BLACK
6
CONTINUOUS
10
103.185
20
-144.03
11
103.17
21
-143.988
0
LINE
8
BLACK
6
CONTINUOUS
10
103.17
20
-143.988
11
103.17
21
-143.812
0
LINE
8
BLACK
6
CONTINUOUS
10
103.17
20
-143.812
11
103.17
21
-43.9882
0
LINE
8
BLACK
6
CONTINUOUS
10
103.17
20
-43.9882
11
103.17
21
-43.9882
0
LINE
8
BLACK
6
CONTINUOUS
10
103.17
20
-43.9882
11
103.17
21
-43.8118
0
LINE
8
BLACK
6
CONTINUOUS
10
103.17
20
-43.8118
11
103.185
21
-43.7701
0
LINE
8
BLACK
6
CONTINUOUS
10
103.185
20
-43.7701
11
103.193
21
-43.7264
0
LINE
8
BLACK
6
CONTINUOUS
10
103.193
20
-43.7264
11
103.215
21
-43.6879
0
LINE
8
BLACK
6
CONTINUOUS
10
103.215
20
-43.6879
11
103.23
21
-43.6461
0
LINE
8
BLACK
6
CONTINUOUS
10
103.23
20
-43.6461
11
103.259
21
-43.6121
0
LINE
8
BLACK
6
CONTINUOUS
10
103.259
20
-43.6121
11
103.281
21
-43.5736
0
LINE
8
BLACK
6
CONTINUOUS
10
103.281
20
-43.5736
11
103.315
21
-43.5451
0
LINE
8
BLACK
6
CONTINUOUS
10
103.315
20
-43.5451
11
103.344
21
-43.5111
0
LINE
8
BLACK
6
CONTINUOUS
10
103.344
20
-43.5111
11
103.382
21
-43.4889
0
LINE
8
BLACK
6
CONTINUOUS
10
103.382
20
-43.4889
11
103.416
21
-43.4603
0
LINE
8
BLACK
6
CONTINUOUS
10
103.416
20
-43.4603
11
103.458
21
-43.4451
0
LINE
8
BLACK
6
CONTINUOUS
10
103.458
20
-43.4451
11
103.496
21
-43.4229
0
LINE
8
BLACK
6
CONTINUOUS
10
103.496
20
-43.4229
11
103.54
21
-43.4152
0
LINE
8
BLACK
6
CONTINUOUS
10
103.54
20
-43.4152
11
103.582
21
-43.4
0
LINE
8
BLACK
6
CONTINUOUS
10
103.582
20
-43.4
11
203.758
21
-43.4
0
LINE
8
BLACK
6
CONTINUOUS
10
203.758
20
-43.4
11
203.8
21
-43.4152
0
LINE
8
BLACK
6
CONTINUOUS
10
203.8
20
-43.4152
11
203.844
21
-43.4229
0
LINE
8
BLACK
6
CONTINUOUS
10
203.844
20
-43.4229
11
203.882
21
-43.4451
0
LINE
8
BLACK
6
CONTINUOUS
10
203.882
20
-43.4451
11
203.924
21
-43.4603
0
LINE
8
BLACK
6
CONTINUOUS
10
203.924
20
-43.4603
11
203.958
21
-43.4889
0
LINE
8
BLACK
6
CONTINUOUS
10
203.958
20
-43.4889
11
203.996
21
-43.5111
0
LINE
8
BLACK
6
CONTINUOUS
10
203.996
20
-43.5111
11
204.025
21
-43.5451
0
LINE
8
BLACK
6
CONTINUOUS
10
204.025
20
-43.5451
11
204.059
21
-43.5736
0
LINE
8
BLACK
6
CONTINUOUS
10
204.059
20
-43.5736
11
204.081
21
-43.6121
0
LINE
8
BLACK
6
CONTINUOUS
10
204.081
20
-43.6121
11
204.11
21
-43.6461
0
LINE
8
BLACK
6
CONTINUOUS
10
204.11
20
-43.6461
11
204.125
21
-43.6879
0
LINE
8
BLACK
6
CONTINUOUS
10
204.125
20
-43.6879
11
204.147
21
-43.7264
0
LINE
8
BLACK
6
CONTINUOUS
10
204.147
20
-43.7264
11
204.155
21
-43.7701
0
LINE
8
BLACK
6
CONTINUOUS
10
204.155
20
-43.7701
11
204.17
21
-43.8118
0
LINE
8
BLACK
6
CONTINUOUS
10
204.17
20
-43.8118
11
204.17
21
-143.988
0
LINE
8
BLACK
6
CONTINUOUS
10
204.17
20
-143.988
11
204.155
21
-144.03
0
LINE
8
BLACK
6
CONTINUOUS
10
104.17
20
-44.4
11
104.17
21
-143.4
0
LINE
8
BLACK
6
CONTINUOUS
10
104.17
20
-143.4
11
203.17
21
-143.4
0
LINE
8
BLACK
6
CONTINUOUS
10
203.17
20
-143.4
11
203.17
21
-44.4
0
LINE
8
BLACK
6
CONTINUOUS
10
203.17
20
-44.4
11
104.17
21
-44.4
  0
ENDSEC
  0
EOF
