<?xml version="1.0" standalone="no"?>
 <!DOCTYPE svg PUBLIC "-//W3C//DTD SVG 1.1//EN" 
 "http://www.w3.org/Graphics/SVG/1.1/DTD/svg11.dtd"> 
<svg xmlns="http://www.w3.org/2000/svg" version="1.1" 
    width="29.7002cm" height="21.0007cm" viewBox="0 0 116930 82680 ">
<title>SVG Picture created as 4op_drum_module-F.SilkS.svg date 2019/01/14 14:07:00 </title>
  <desc>Picture generated by PCBNEW </desc>
<g style="fill:#000000; fill-opacity:1;stroke:#000000; stroke-opacity:1;
stroke-linecap:round; stroke-linejoin:round; "
 transform="translate(0 0) scale(1 1)">
</g>
<g style="fill:#000000; fill-opacity:0.0; 
stroke:#000000; stroke-width:-0.000393701; stroke-opacity:1; 
stroke-linecap:round; stroke-linejoin:round;">
</g>
<g style="fill:#000000; fill-opacity:0.0; 
stroke:#000000; stroke-width:118.11; stroke-opacity:1; 
stroke-linecap:round; stroke-linejoin:round;">
<path d="M79827 21830
L79827 21942
L79799 21998
L79742 22055
L79630 22083
L79433 22083
L79321 22055
L79264 21998
L79236 21942
L79236 21830
L79264 21773
L79321 21717
L79433 21689
L79630 21689
L79742 21717
L79799 21773
L79827 21830
" />
<path d="M79236 22336
L79827 22336
L79827 22561
L79799 22617
L79771 22645
L79714 22673
L79630 22673
L79574 22645
L79546 22617
L79517 22561
L79517 22336
" />
<path d="M79236 23208
L79236 22926
L79827 22926
" />
<path d="M79827 23348
L79827 23714
L79602 23517
L79602 23601
L79574 23658
L79546 23686
L79489 23714
L79349 23714
L79293 23686
L79264 23658
L79236 23601
L79236 23433
L79264 23376
L79293 23348
" />
<path d="M79236 24417
L79827 24417
L79827 24557
L79799 24642
L79742 24698
L79686 24726
L79574 24754
L79489 24754
L79377 24726
L79321 24698
L79264 24642
L79236 24557
L79236 24417
" />
<path d="M79236 25007
L79630 25007
" />
<path d="M79517 25007
L79574 25035
L79602 25064
L79630 25120
L79630 25176
" />
<path d="M79630 25626
L79236 25626
" />
<path d="M79630 25373
L79321 25373
L79264 25401
L79236 25457
L79236 25542
L79264 25598
L79293 25626
" />
<path d="M79236 25907
L79630 25907
" />
<path d="M79574 25907
L79602 25935
L79630 25992
L79630 26076
L79602 26132
L79546 26160
L79236 26160
" />
<path d="M79546 26160
L79602 26188
L79630 26245
L79630 26329
L79602 26385
L79546 26413
L79236 26413
" />
<path d="M79264 27116
L79236 27201
L79236 27341
L79264 27398
L79293 27426
L79349 27454
L79405 27454
L79461 27426
L79489 27398
L79517 27341
L79546 27229
L79574 27173
L79602 27145
L79658 27116
L79714 27116
L79771 27145
L79799 27173
L79827 27229
L79827 27370
L79799 27454
" />
<path d="M79630 27651
L79236 27791
" />
<path d="M79630 27932
L79236 27791
L79096 27735
L79068 27707
L79039 27651
" />
<path d="M79630 28157
L79236 28157
" />
<path d="M79574 28157
L79602 28185
L79630 28241
L79630 28326
L79602 28382
L79546 28410
L79236 28410
" />
<path d="M79630 28607
L79630 28832
" />
<path d="M79827 28691
L79321 28691
L79264 28719
L79236 28776
L79236 28832
" />
<path d="M79236 29029
L79827 29029
" />
<path d="M79236 29282
L79546 29282
L79602 29254
L79630 29197
L79630 29113
L79602 29057
L79574 29029
" />
<path d="M78232 17668
L78823 17668
L78232 18005
L78823 18005
" />
<path d="M78260 18511
L78232 18455
L78232 18343
L78260 18286
L78317 18258
L78542 18258
L78598 18286
L78626 18343
L78626 18455
L78598 18511
L78542 18539
L78485 18539
L78429 18258
" />
<path d="M78232 18793
L78626 18793
" />
<path d="M78823 18793
L78795 18764
L78767 18793
L78795 18821
L78823 18793
L78767 18793
" />
<path d="M78232 19158
L78260 19102
L78317 19074
L78823 19074
" />
<path d="M78542 20030
L78542 19833
" />
<path d="M78232 19833
L78823 19833
L78823 20114
" />
<path d="M78232 20424
L78260 20367
L78289 20339
L78345 20311
L78514 20311
L78570 20339
L78598 20367
L78626 20424
L78626 20508
L78598 20564
L78570 20592
L78514 20620
L78345 20620
L78289 20592
L78260 20564
L78232 20508
L78232 20424
" />
<path d="M78232 20874
L78626 20874
" />
<path d="M78514 20874
L78570 20902
L78598 20930
L78626 20986
L78626 21042
" />
<path d="M78232 21239
L78823 21239
" />
<path d="M78598 21239
L78626 21295
L78626 21408
L78598 21464
L78570 21492
L78514 21520
L78345 21520
L78289 21492
L78260 21464
L78232 21408
L78232 21295
L78260 21239
" />
<path d="M78260 21998
L78232 21942
L78232 21830
L78260 21773
L78317 21745
L78542 21745
L78598 21773
L78626 21830
L78626 21942
L78598 21998
L78542 22026
L78485 22026
L78429 21745
" />
<path d="M78260 22251
L78232 22308
L78232 22420
L78260 22476
L78317 22505
L78345 22505
L78401 22476
L78429 22420
L78429 22336
L78457 22280
L78514 22251
L78542 22251
L78598 22280
L78626 22336
L78626 22420
L78598 22476
" />
<path d="M78457 22758
L78457 23208
" />
<path d="M78232 23826
L78514 23629
" />
<path d="M78232 23489
L78823 23489
L78823 23714
L78795 23770
L78767 23798
L78710 23826
L78626 23826
L78570 23798
L78542 23770
L78514 23714
L78514 23489
" />
<path d="M78232 24079
L78626 24079
" />
<path d="M78823 24079
L78795 24051
L78767 24079
L78795 24107
L78823 24079
L78767 24079
" />
<path d="M78260 24614
L78232 24557
L78232 24445
L78260 24389
L78289 24361
L78345 24332
L78514 24332
L78570 24361
L78598 24389
L78626 24445
L78626 24557
L78598 24614
" />
<path d="M78232 24867
L78823 24867
" />
<path d="M78232 25120
L78542 25120
L78598 25092
L78626 25035
L78626 24951
L78598 24895
L78570 24867
" />
<path d="M78232 25654
L78542 25654
L78598 25626
L78626 25570
L78626 25457
L78598 25401
" />
<path d="M78260 25654
L78232 25598
L78232 25457
L78260 25401
L78317 25373
L78373 25373
L78429 25401
L78457 25457
L78457 25598
L78485 25654
" />
<path d="M78232 25935
L78626 25935
" />
<path d="M78514 25935
L78570 25964
L78598 25992
L78626 26048
L78626 26104
" />
<path d="M78232 26554
L78823 26554
" />
<path d="M78260 26554
L78232 26498
L78232 26385
L78260 26329
L78289 26301
L78345 26273
L78514 26273
L78570 26301
L78598 26329
L78626 26385
L78626 26498
L78598 26554
" />
<path d="M78260 26807
L78232 26863
L78232 26976
L78260 27032
L78317 27060
L78345 27060
L78401 27032
L78429 26976
L78429 26892
L78457 26835
L78514 26807
L78542 26807
L78598 26835
L78626 26892
L78626 26976
L78598 27032
" />
<path d="M78232 27398
L78260 27341
L78289 27313
L78345 27285
L78514 27285
L78570 27313
L78598 27341
L78626 27398
L78626 27482
L78598 27538
L78570 27566
L78514 27595
L78345 27595
L78289 27566
L78260 27538
L78232 27482
L78232 27398
" />
<path d="M78626 27848
L78232 27848
" />
<path d="M78570 27848
L78598 27876
L78626 27932
L78626 28016
L78598 28073
L78542 28101
L78232 28101
" />
<path d="M78007 29001
L78035 28973
L78120 28916
L78176 28888
L78260 28860
L78401 28832
L78514 28832
L78654 28860
L78739 28888
L78795 28916
L78879 28973
L78907 29001
" />
<path d="M78514 29591
L78542 29563
L78570 29507
L78570 29451
L78542 29394
L78514 29366
L78457 29338
L78401 29338
L78345 29366
L78317 29394
L78289 29451
L78289 29507
L78317 29563
L78345 29591
" />
<path d="M78570 29591
L78345 29591
L78317 29619
L78317 29647
L78345 29704
L78401 29732
L78542 29732
L78626 29676
L78682 29591
L78710 29479
L78682 29366
L78626 29282
L78542 29226
L78429 29197
L78317 29226
L78232 29282
L78176 29366
L78148 29479
L78176 29591
L78232 29676
" />
<path d="M78626 29985
L78232 29985
" />
<path d="M78570 29985
L78598 30013
L78626 30069
L78626 30154
L78598 30210
L78542 30238
L78232 30238
" />
<path d="M78260 30744
L78232 30688
L78232 30575
L78260 30519
L78317 30491
L78542 30491
L78598 30519
L78626 30575
L78626 30688
L78598 30744
L78542 30772
L78485 30772
L78429 30491
" />
<path d="M78232 31025
L78626 31025
" />
<path d="M78823 31025
L78795 30997
L78767 31025
L78795 31053
L78823 31025
L78767 31025
" />
<path d="M78232 31391
L78260 31335
L78317 31307
L78823 31307
" />
<path d="M78232 31700
L78260 31644
L78289 31616
L78345 31588
L78514 31588
L78570 31616
L78598 31644
L78626 31700
L78626 31785
L78598 31841
L78570 31869
L78514 31897
L78345 31897
L78289 31869
L78260 31841
L78232 31785
L78232 31700
" />
<path d="M78626 32403
L78148 32403
L78092 32375
L78064 32347
L78035 32291
L78035 32206
L78064 32150
" />
<path d="M78260 32403
L78232 32347
L78232 32235
L78260 32178
L78289 32150
L78345 32122
L78514 32122
L78570 32150
L78598 32178
L78626 32235
L78626 32347
L78598 32403
" />
<path d="M78232 32938
L78823 32938
" />
<path d="M78260 32938
L78232 32881
L78232 32769
L78260 32713
L78289 32685
L78345 32656
L78514 32656
L78570 32685
L78598 32713
L78626 32769
L78626 32881
L78598 32938
" />
<path d="M78007 33163
L78035 33191
L78120 33247
L78176 33275
L78260 33303
L78401 33331
L78514 33331
L78654 33303
L78739 33275
L78795 33247
L78879 33191
L78907 33163
" />
<path d="M77228 24557
L77510 24361
" />
<path d="M77228 24220
L77819 24220
L77819 24445
L77791 24501
L77763 24529
L77706 24557
L77622 24557
L77566 24529
L77538 24501
L77510 24445
L77510 24220
" />
<path d="M77257 25035
L77228 24979
L77228 24867
L77257 24811
L77313 24782
L77538 24782
L77594 24811
L77622 24867
L77622 24979
L77594 25035
L77538 25064
L77482 25064
L77425 24782
" />
<path d="M77622 25260
L77228 25401
L77622 25542
" />
<path d="M77285 25767
L77257 25795
L77228 25767
L77257 25739
L77285 25767
L77228 25767
" />
<path d="M77228 26807
L77228 26470
" />
<path d="M77228 26638
L77819 26638
L77735 26582
L77678 26526
L77650 26470
" />
</g>
<g style="fill:#000000; fill-opacity:0.0; 
stroke:#000000; stroke-width:47.2441; stroke-opacity:1; 
stroke-linecap:round; stroke-linejoin:round;">
<circle cx="67047.2" cy="44515.7" r="1181.1" /> 
<path d="M66259 46838
L64645 46838
" />
<path d="M64645 42192
L66259 42192
" />
<path d="M67834 42192
L69448 42192
" />
<path d="M67834 46838
L69448 46838
" />
<path d="M69448 46838
L69448 42192
" />
<path d="M70000 46011
L70118 46129
" />
<path d="M70118 46129
L69881 46129
" />
<path d="M69881 46129
L70000 46011
" />
<path d="M64645 46838
L64645 45893
" />
<path d="M64645 45027
L64645 44003
" />
<path d="M64645 43137
L64645 42192
" />
<path d="M67047 44712
L67047 44318
" />
<path d="M67244 44515
L66850 44515
" />
<path d="M55976 22476
L56500 22476
" />
<path d="M55976 23000
L55976 22476
" />
<path d="M55976 23500
L57023 23500
" />
<path d="M57023 23500
L57023 25523
" />
<path d="M55976 23500
L55976 25523
" />
<path d="M55976 25523
L57023 25523
" />
<path d="M74000 18679
L72405 18679
" />
<path d="M74000 18679
L74895 18679
" />
<path d="M74000 22820
L73104 22820
" />
<path d="M74000 22820
L74895 22820
" />
<path d="M52476 21500
L53523 21500
" />
<path d="M52476 21500
L52476 31523
" />
<path d="M52476 31523
L53523 31523
" />
<path d="M53523 21500
L53523 31523
" />
<path d="M53523 20476
L53523 21000
" />
<path d="M53000 20476
L53523 20476
" />
<path d="M65950 27722
L65950 27588
" />
<path d="M65549 27722
L65549 27588
" />
<path d="M76527 20299
L76661 20299
" />
<path d="M76527 20700
L76661 20700
" />
<path d="M76527 21799
L76661 21799
" />
<path d="M76527 22200
L76661 22200
" />
<circle cx="45047.2" cy="44500" r="1181.1" /> 
<path d="M44259 46822
L42645 46822
" />
<path d="M42645 42177
L44259 42177
" />
<path d="M45834 42177
L47448 42177
" />
<path d="M45834 46822
L47448 46822
" />
<path d="M47448 46822
L47448 42177
" />
<path d="M48000 45996
L48118 46114
" />
<path d="M48118 46114
L47881 46114
" />
<path d="M47881 46114
L48000 45996
" />
<path d="M42645 46822
L42645 45877
" />
<path d="M42645 45011
L42645 43988
" />
<path d="M42645 43122
L42645 42177
" />
<path d="M45047 44696
L45047 44303
" />
<path d="M45244 44500
L44850 44500
" />
</g>
<g style="fill:#000000; fill-opacity:0.0; 
stroke:#000000; stroke-width:59.0551; stroke-opacity:1; 
stroke-linecap:round; stroke-linejoin:round;">
<path d="M67224 18757
L66505 18757
" />
<path d="M67224 24850
L70275 24850
" />
<path d="M67224 18649
L70275 18649
" />
<path d="M67224 24850
L67224 24706
" />
<path d="M70275 24850
L70275 24706
" />
<path d="M70275 18649
L70275 18793
" />
<path d="M67224 18649
L67224 18757
" />
</g>
<g style="fill:#000000; fill-opacity:0.0; 
stroke:#000000; stroke-width:47.2441; stroke-opacity:1; 
stroke-linecap:round; stroke-linejoin:round;">
<path d="M76527 21700
L76661 21700
" />
<path d="M76527 21299
L76661 21299
" />
<path d="M65799 19277
L65799 19411
" />
<path d="M66200 19277
L66200 19411
" />
<path d="M71549 19182
L71549 19317
" />
<path d="M71950 19182
L71950 19317
" />
<path d="M47777 39700
L47911 39700
" />
<path d="M47777 39299
L47911 39299
" />
<path d="M47777 27700
L47911 27700
" />
<path d="M47777 27299
L47911 27299
" />
<path d="M47777 23700
L47911 23700
" />
<path d="M47777 23299
L47911 23299
" />
<path d="M47777 35700
L47911 35700
" />
<path d="M47777 35299
L47911 35299
" />
<path d="M47777 19700
L47911 19700
" />
<path d="M47777 19299
L47911 19299
" />
<path d="M47777 31700
L47911 31700
" />
<path d="M47777 31299
L47911 31299
" />
<path d="M47777 32700
L47911 32700
" />
<path d="M47777 32299
L47911 32299
" />
<path d="M47777 36700
L47911 36700
" />
<path d="M47777 36299
L47911 36299
" />
<path d="M47777 40700
L47911 40700
" />
<path d="M47777 40299
L47911 40299
" />
<path d="M59088 29200
L59222 29200
" />
<path d="M59088 28799
L59222 28799
" />
<path d="M59088 29799
L59222 29799
" />
<path d="M59088 30200
L59222 30200
" />
<path d="M59088 31200
L59222 31200
" />
<path d="M59088 30799
L59222 30799
" />
<path d="M70911 33799
L70777 33799
" />
<path d="M70911 34200
L70777 34200
" />
<path d="M70972 37799
L70838 37799
" />
<path d="M70972 38200
L70838 38200
" />
<path d="M59088 28200
L59222 28200
" />
<path d="M59088 27799
L59222 27799
" />
<path d="M47777 20700
L47911 20700
" />
<path d="M47777 20299
L47911 20299
" />
<path d="M59088 23200
L59222 23200
" />
<path d="M59088 22799
L59222 22799
" />
<path d="M47777 24577
L47911 24577
" />
<path d="M47777 24175
L47911 24175
" />
<path d="M47777 28700
L47911 28700
" />
<path d="M47777 28299
L47911 28299
" />
<path d="M47911 34299
L47777 34299
" />
<path d="M47911 34700
L47777 34700
" />
<path d="M47911 26299
L47777 26299
" />
<path d="M47911 26700
L47777 26700
" />
<path d="M47911 22299
L47777 22299
" />
<path d="M47911 22700
L47777 22700
" />
<path d="M47911 38299
L47777 38299
" />
<path d="M47911 38700
L47777 38700
" />
<path d="M47911 30299
L47777 30299
" />
<path d="M47911 30700
L47777 30700
" />
<path d="M47911 18207
L47777 18207
" />
<path d="M47911 18608
L47777 18608
" />
<path d="M48976 24023
L50023 24023
" />
<path d="M48976 23000
L48976 24023
" />
<path d="M50023 23000
L50023 24023
" />
<path d="M48976 23000
L50023 23000
" />
<path d="M48976 22500
L48976 21976
" />
<path d="M48976 21976
L49500 21976
" />
<path d="M76193 36228
L72059 36228
" />
<path d="M76193 39771
L72059 39771
" />
<path d="M75440.5 37489.7 A1139.76 1139.76 0.0 0 0 73281.6 38000 " />
<path d="M73281.6 38000 A1139.76 1139.76 0.0 0 0 75440.5 38510.3 " />
<path d="M72059 39771
L72059 38393
" />
<path d="M72059 37606
L72059 36228
" />
<path d="M76193 39771
L76193 38354
" />
<path d="M76193 37645
L76193 36228
" />
<circle cx="74421.4" cy="38000" r="708.661" /> 
<path d="M76500 37834
L76263 37834
" />
<path d="M76500 38165
L76263 38165
" />
<path d="M77437 37448
L77004 37448
" />
<path d="M77437 37448
L77437 37968
" />
<path d="M42791 21271
L46925 21271
" />
<path d="M42791 17728
L46925 17728
" />
<path d="M43543.9 20010.3 A1139.76 1139.76 0.0 0 0 45702.8 19500 " />
<path d="M45702.8 19500 A1139.76 1139.76 0.0 0 0 43543.9 18989.7 " />
<path d="M46925 17728
L46925 19106
" />
<path d="M46925 19893
L46925 21271
" />
<path d="M42791 17728
L42791 19145
" />
<path d="M42791 19854
L42791 21271
" />
<circle cx="44563" cy="19500" r="708.661" /> 
<path d="M42484 19665
L42720 19665
" />
<path d="M42484 19334
L42720 19334
" />
<path d="M41547 20051
L41980 20051
" />
<path d="M41547 20051
L41547 19531
" />
<path d="M41547 24051
L41547 23531
" />
<path d="M41547 24051
L41980 24051
" />
<path d="M42484 23334
L42720 23334
" />
<path d="M42484 23665
L42720 23665
" />
<circle cx="44563" cy="23500" r="708.661" /> 
<path d="M42791 23854
L42791 25271
" />
<path d="M42791 21728
L42791 23145
" />
<path d="M46925 23893
L46925 25271
" />
<path d="M46925 21728
L46925 23106
" />
<path d="M45702.8 23500 A1139.76 1139.76 0.0 0 0 43543.9 22989.7 " />
<path d="M43543.9 24010.3 A1139.76 1139.76 0.0 0 0 45702.8 23500 " />
<path d="M42791 21728
L46925 21728
" />
<path d="M42791 25271
L46925 25271
" />
<path d="M42791 29271
L46925 29271
" />
<path d="M42791 25728
L46925 25728
" />
<path d="M43543.9 28010.3 A1139.76 1139.76 0.0 0 0 45702.8 27500 " />
<path d="M45702.8 27500 A1139.76 1139.76 0.0 0 0 43543.9 26989.7 " />
<path d="M46925 25728
L46925 27106
" />
<path d="M46925 27893
L46925 29271
" />
<path d="M42791 25728
L42791 27145
" />
<path d="M42791 27854
L42791 29271
" />
<circle cx="44563" cy="27500" r="708.661" /> 
<path d="M42484 27665
L42720 27665
" />
<path d="M42484 27334
L42720 27334
" />
<path d="M41547 28051
L41980 28051
" />
<path d="M41547 28051
L41547 27531
" />
<path d="M41574 32051
L41574 31531
" />
<path d="M41574 32051
L42007 32051
" />
<path d="M42511 31334
L42748 31334
" />
<path d="M42511 31665
L42748 31665
" />
<circle cx="44590.6" cy="31500" r="708.661" /> 
<path d="M42818 31854
L42818 33271
" />
<path d="M42818 29728
L42818 31145
" />
<path d="M46952 31893
L46952 33271
" />
<path d="M46952 29728
L46952 31106
" />
<path d="M45730.3 31500 A1139.76 1139.76 0.0 0 0 43571.4 30989.7 " />
<path d="M43571.4 32010.3 A1139.76 1139.76 0.0 0 0 45730.3 31500 " />
<path d="M42818 29728
L46952 29728
" />
<path d="M42818 33271
L46952 33271
" />
<path d="M42818 37271
L46952 37271
" />
<path d="M42818 33728
L46952 33728
" />
<path d="M43571.4 36010.3 A1139.76 1139.76 0.0 0 0 45730.3 35500 " />
<path d="M45730.3 35500 A1139.76 1139.76 0.0 0 0 43571.4 34989.7 " />
<path d="M46952 33728
L46952 35106
" />
<path d="M46952 35893
L46952 37271
" />
<path d="M42818 33728
L42818 35145
" />
<path d="M42818 35854
L42818 37271
" />
<circle cx="44590.6" cy="35500" r="708.661" /> 
<path d="M42511 35665
L42748 35665
" />
<path d="M42511 35334
L42748 35334
" />
<path d="M41574 36051
L42007 36051
" />
<path d="M41574 36051
L41574 35531
" />
<path d="M76193 32228
L72059 32228
" />
<path d="M76193 35771
L72059 35771
" />
<path d="M75440.5 33489.7 A1139.76 1139.76 0.0 0 0 73281.6 34000 " />
<path d="M73281.6 34000 A1139.76 1139.76 0.0 0 0 75440.5 34510.3 " />
<path d="M72059 35771
L72059 34393
" />
<path d="M72059 33606
L72059 32228
" />
<path d="M76193 35771
L76193 34354
" />
<path d="M76193 33645
L76193 32228
" />
<circle cx="74421.4" cy="34000" r="708.661" /> 
<path d="M76500 33834
L76263 33834
" />
<path d="M76500 34165
L76263 34165
" />
<path d="M77437 33448
L77004 33448
" />
<path d="M77437 33448
L77437 33968
" />
<path d="M42791 41271
L46925 41271
" />
<path d="M42791 37728
L46925 37728
" />
<path d="M43543.9 40010.3 A1139.76 1139.76 0.0 0 0 45702.8 39500 " />
<path d="M45702.8 39500 A1139.76 1139.76 0.0 0 0 43543.9 38989.7 " />
<path d="M46925 37728
L46925 39106
" />
<path d="M46925 39893
L46925 41271
" />
<path d="M42791 37728
L42791 39145
" />
<path d="M42791 39854
L42791 41271
" />
<circle cx="44563" cy="39500" r="708.661" /> 
<path d="M42484 39665
L42720 39665
" />
<path d="M42484 39334
L42720 39334
" />
<path d="M41547 40051
L41980 40051
" />
<path d="M41547 40051
L41547 39531
" />
<path d="M48976 28023
L50023 28023
" />
<path d="M48976 27000
L48976 28023
" />
<path d="M50023 27000
L50023 28023
" />
<path d="M48976 27000
L50023 27000
" />
<path d="M48976 26500
L48976 25976
" />
<path d="M48976 25976
L49500 25976
" />
<path d="M48976 29976
L49500 29976
" />
<path d="M48976 30500
L48976 29976
" />
<path d="M48976 31000
L50023 31000
" />
<path d="M50023 31000
L50023 32023
" />
<path d="M48976 31000
L48976 32023
" />
<path d="M48976 32023
L50023 32023
" />
<path d="M48976 17976
L49500 17976
" />
<path d="M48976 18500
L48976 17976
" />
<path d="M48976 19000
L50023 19000
" />
<path d="M50023 19000
L50023 20023
" />
<path d="M48976 19000
L48976 20023
" />
<path d="M48976 20023
L50023 20023
" />
<path d="M48976 36023
L50023 36023
" />
<path d="M48976 35000
L48976 36023
" />
<path d="M50023 35000
L50023 36023
" />
<path d="M48976 35000
L50023 35000
" />
<path d="M48976 34500
L48976 33976
" />
<path d="M48976 33976
L49500 33976
" />
<path d="M48976 37976
L49500 37976
" />
<path d="M48976 38500
L48976 37976
" />
<path d="M48976 39000
L50023 39000
" />
<path d="M50023 39000
L50023 40023
" />
<path d="M48976 39000
L48976 40023
" />
<path d="M48976 40023
L50023 40023
" />
<path d="M55976 29523
L57023 29523
" />
<path d="M55976 27500
L55976 29523
" />
<path d="M57023 27500
L57023 29523
" />
<path d="M55976 27500
L57023 27500
" />
<path d="M55976 27000
L55976 26476
" />
<path d="M55976 26476
L56500 26476
" />
<circle cx="53047.2" cy="44515.7" r="1181.1" /> 
<path d="M52259 46838
L50645 46838
" />
<path d="M50645 42192
L52259 42192
" />
<path d="M53834 42192
L55448 42192
" />
<path d="M53834 46838
L55448 46838
" />
<path d="M55448 46838
L55448 42192
" />
<path d="M56000 46011
L56118 46129
" />
<path d="M56118 46129
L55881 46129
" />
<path d="M55881 46129
L56000 46011
" />
<path d="M50645 46838
L50645 45893
" />
<path d="M50645 45027
L50645 44003
" />
<path d="M50645 43137
L50645 42192
" />
<path d="M53047 44712
L53047 44318
" />
<path d="M53244 44515
L52850 44515
" />
<path d="M53244 51515
L52850 51515
" />
<path d="M53047 51712
L53047 51318
" />
<path d="M50645 50137
L50645 49192
" />
<path d="M50645 52027
L50645 51003
" />
<path d="M50645 53838
L50645 52893
" />
<path d="M55881 53129
L56000 53011
" />
<path d="M56118 53129
L55881 53129
" />
<path d="M56000 53011
L56118 53129
" />
<path d="M55448 53838
L55448 49192
" />
<path d="M53834 53838
L55448 53838
" />
<path d="M53834 49192
L55448 49192
" />
<path d="M50645 49192
L52259 49192
" />
<path d="M52259 53838
L50645 53838
" />
<circle cx="53047.2" cy="51515.7" r="1181.1" /> 
<circle cx="60047.2" cy="44515.7" r="1181.1" /> 
<path d="M59259 46838
L57645 46838
" />
<path d="M57645 42192
L59259 42192
" />
<path d="M60834 42192
L62448 42192
" />
<path d="M60834 46838
L62448 46838
" />
<path d="M62448 46838
L62448 42192
" />
<path d="M63000 46011
L63118 46129
" />
<path d="M63118 46129
L62881 46129
" />
<path d="M62881 46129
L63000 46011
" />
<path d="M57645 46838
L57645 45893
" />
<path d="M57645 45027
L57645 44003
" />
<path d="M57645 43137
L57645 42192
" />
<path d="M60047 44712
L60047 44318
" />
<path d="M60244 44515
L59850 44515
" />
<path d="M60244 51515
L59850 51515
" />
<path d="M60047 51712
L60047 51318
" />
<path d="M57645 50137
L57645 49192
" />
<path d="M57645 52027
L57645 51003
" />
<path d="M57645 53838
L57645 52893
" />
<path d="M62881 53129
L63000 53011
" />
<path d="M63118 53129
L62881 53129
" />
<path d="M63000 53011
L63118 53129
" />
<path d="M62448 53838
L62448 49192
" />
<path d="M60834 53838
L62448 53838
" />
<path d="M60834 49192
L62448 49192
" />
<path d="M57645 49192
L59259 49192
" />
<path d="M59259 53838
L57645 53838
" />
<circle cx="60047.2" cy="51515.7" r="1181.1" /> 
<path d="M67244 51515
L66850 51515
" />
<path d="M67047 51712
L67047 51318
" />
<path d="M64645 50137
L64645 49192
" />
<path d="M64645 52027
L64645 51003
" />
<path d="M64645 53838
L64645 52893
" />
<path d="M69881 53129
L70000 53011
" />
<path d="M70118 53129
L69881 53129
" />
<path d="M70000 53011
L70118 53129
" />
<path d="M69448 53838
L69448 49192
" />
<path d="M67834 53838
L69448 53838
" />
<path d="M67834 49192
L69448 49192
" />
<path d="M64645 49192
L66259 49192
" />
<path d="M66259 53838
L64645 53838
" />
<circle cx="67047.2" cy="51515.7" r="1181.1" /> 
<circle cx="74047.2" cy="44515.7" r="1181.1" /> 
<path d="M73259 46838
L71645 46838
" />
<path d="M71645 42192
L73259 42192
" />
<path d="M74834 42192
L76448 42192
" />
<path d="M74834 46838
L76448 46838
" />
<path d="M76448 46838
L76448 42192
" />
<path d="M77000 46011
L77118 46129
" />
<path d="M77118 46129
L76881 46129
" />
<path d="M76881 46129
L77000 46011
" />
<path d="M71645 46838
L71645 45893
" />
<path d="M71645 45027
L71645 44003
" />
<path d="M71645 43137
L71645 42192
" />
<path d="M74047 44712
L74047 44318
" />
<path d="M74244 44515
L73850 44515
" />
<path d="M45244 51484
L44850 51484
" />
<path d="M45047 51681
L45047 51287
" />
<path d="M42645 50106
L42645 49161
" />
<path d="M42645 51996
L42645 50972
" />
<path d="M42645 53807
L42645 52862
" />
<path d="M47881 53098
L48000 52980
" />
<path d="M48118 53098
L47881 53098
" />
<path d="M48000 52980
L48118 53098
" />
<path d="M47448 53807
L47448 49161
" />
<path d="M45834 53807
L47448 53807
" />
<path d="M45834 49161
L47448 49161
" />
<path d="M42645 49161
L44259 49161
" />
<path d="M44259 53807
L42645 53807
" />
<circle cx="45047.2" cy="51484.3" r="1181.1" /> 
</g>
<g style="fill:#000000; fill-opacity:0.0; 
stroke:#000000; stroke-width:59.0551; stroke-opacity:1; 
stroke-linecap:round; stroke-linejoin:round;">
<path d="M68185 47509
L68241 47528
L68335 47528
L68372 47509
L68391 47491
L68410 47453
L68410 47416
L68391 47378
L68372 47359
L68335 47341
L68260 47322
L68222 47303
L68203 47284
L68185 47247
L68185 47209
L68203 47172
L68222 47153
L68260 47134
L68353 47134
L68410 47153
" />
<path d="M68541 47134
L68635 47528
L68710 47247
L68785 47528
L68878 47134
" />
<path d="M69235 47528
L69010 47528
" />
<path d="M69122 47528
L69122 47134
L69085 47191
L69047 47228
L69010 47247
" />
<path d="M69385 47172
L69403 47153
L69441 47134
L69535 47134
L69572 47153
L69591 47172
L69610 47209
L69610 47247
L69591 47303
L69366 47528
L69610 47528
" />
<path d="M56368 21867
L56368 22148
L56350 22204
L56312 22242
L56256 22260
L56218 22260
" />
<path d="M56537 21904
L56556 21885
L56593 21867
L56687 21867
L56724 21885
L56743 21904
L56762 21942
L56762 21979
L56743 22035
L56518 22260
L56762 22260
" />
<path d="M73700 18132
L73700 18451
L73718 18489
L73737 18507
L73775 18526
L73850 18526
L73887 18507
L73906 18489
L73925 18451
L73925 18132
" />
<path d="M74281 18264
L74281 18526
" />
<path d="M74187 18114
L74093 18395
L74337 18395
" />
<path d="M52681 19693
L52681 19975
L52662 20031
L52625 20068
L52568 20087
L52531 20087
" />
<path d="M53074 20087
L52850 20087
" />
<path d="M52962 20087
L52962 19693
L52925 19750
L52887 19787
L52850 19806
" />
<path d="M53224 19731
L53243 19712
L53281 19693
L53374 19693
L53412 19712
L53431 19731
L53449 19768
L53449 19806
L53431 19862
L53206 20087
L53449 20087
" />
<path d="M66390 27721
L66409 27739
L66428 27796
L66428 27833
L66409 27889
L66371 27927
L66334 27946
L66259 27964
L66203 27964
L66128 27946
L66090 27927
L66053 27889
L66034 27833
L66034 27796
L66053 27739
L66071 27721
" />
<path d="M66165 27383
L66428 27383
" />
<path d="M66015 27477
L66296 27571
L66296 27327
" />
<path d="M76341 20077
L76322 20096
L76266 20115
L76228 20115
L76172 20096
L76135 20058
L76116 20021
L76097 19946
L76097 19890
L76116 19815
L76135 19777
L76172 19740
L76228 19721
L76266 19721
L76322 19740
L76341 19758
" />
<path d="M76716 20115
L76491 20115
" />
<path d="M76603 20115
L76603 19721
L76566 19777
L76528 19815
L76491 19833
" />
<path d="M76960 19721
L76997 19721
L77035 19740
L77053 19758
L77072 19796
L77091 19871
L77091 19965
L77072 20040
L77053 20077
L77035 20096
L76997 20115
L76960 20115
L76922 20096
L76903 20077
L76885 20040
L76866 19965
L76866 19871
L76885 19796
L76903 19758
L76922 19740
L76960 19721
" />
<path d="M77684 22140
L77665 22159
L77609 22178
L77571 22178
L77515 22159
L77478 22121
L77459 22084
L77440 22009
L77440 21953
L77459 21878
L77478 21840
L77515 21803
L77571 21784
L77609 21784
L77665 21803
L77684 21821
" />
<path d="M77909 21953
L77871 21934
L77853 21915
L77834 21878
L77834 21859
L77853 21821
L77871 21803
L77909 21784
L77984 21784
L78021 21803
L78040 21821
L78059 21859
L78059 21878
L78040 21915
L78021 21934
L77984 21953
L77909 21953
L77871 21971
L77853 21990
L77834 22028
L77834 22103
L77853 22140
L77871 22159
L77909 22178
L77984 22178
L78021 22159
L78040 22140
L78059 22103
L78059 22028
L78040 21990
L78021 21971
L77984 21953
" />
<path d="M46372 47494
L46428 47512
L46522 47512
L46560 47494
L46578 47475
L46597 47437
L46597 47400
L46578 47362
L46560 47344
L46522 47325
L46447 47306
L46410 47287
L46391 47269
L46372 47231
L46372 47194
L46391 47156
L46410 47137
L46447 47119
L46541 47119
L46597 47137
" />
<path d="M46728 47119
L46822 47512
L46897 47231
L46972 47512
L47066 47119
" />
<path d="M47385 47250
L47385 47512
" />
<path d="M47291 47100
L47197 47381
L47441 47381
" />
<path d="M68450 18069
L68450 18388
L68468 18426
L68487 18444
L68525 18463
L68600 18463
L68637 18444
L68656 18426
L68675 18388
L68675 18069
" />
<path d="M68824 18069
L69068 18069
L68937 18219
L68993 18219
L69031 18238
L69049 18257
L69068 18294
L69068 18388
L69049 18426
L69031 18444
L68993 18463
L68881 18463
L68843 18444
L68824 18426
" />
<path d="M77684 21640
L77665 21659
L77609 21678
L77571 21678
L77515 21659
L77478 21621
L77459 21584
L77440 21509
L77440 21453
L77459 21378
L77478 21340
L77515 21303
L77571 21284
L77609 21284
L77665 21303
L77684 21321
" />
<path d="M77871 21678
L77946 21678
L77984 21659
L78003 21640
L78040 21584
L78059 21509
L78059 21359
L78040 21321
L78021 21303
L77984 21284
L77909 21284
L77871 21303
L77853 21321
L77834 21359
L77834 21453
L77853 21490
L77871 21509
L77909 21528
L77984 21528
L78021 21509
L78040 21490
L78059 21453
" />
<path d="M66140 20565
L66159 20584
L66178 20640
L66178 20678
L66159 20734
L66121 20771
L66084 20790
L66009 20809
L65953 20809
L65878 20790
L65840 20771
L65803 20734
L65784 20678
L65784 20640
L65803 20584
L65821 20565
" />
<path d="M65784 20228
L65784 20303
L65803 20340
L65821 20359
L65878 20396
L65953 20415
L66103 20415
L66140 20396
L66159 20378
L66178 20340
L66178 20265
L66159 20228
L66140 20209
L66103 20190
L66009 20190
L65971 20209
L65953 20228
L65934 20265
L65934 20340
L65953 20378
L65971 20396
L66009 20415
" />
<path d="M71684 18390
L71665 18409
L71609 18428
L71571 18428
L71515 18409
L71478 18371
L71459 18334
L71440 18259
L71440 18203
L71459 18128
L71478 18090
L71515 18053
L71571 18034
L71609 18034
L71665 18053
L71684 18071
" />
<path d="M72040 18034
L71853 18034
L71834 18221
L71853 18203
L71890 18184
L71984 18184
L72021 18203
L72040 18221
L72059 18259
L72059 18353
L72040 18390
L72021 18409
L71984 18428
L71890 18428
L71853 18409
L71834 18390
" />
<path d="M47591 39115
L47460 38927
" />
<path d="M47366 39115
L47366 38721
L47516 38721
L47553 38740
L47572 38758
L47591 38796
L47591 38852
L47572 38890
L47553 38908
L47516 38927
L47366 38927
" />
<path d="M47966 39115
L47741 39115
" />
<path d="M47853 39115
L47853 38721
L47816 38777
L47778 38815
L47741 38833
" />
<path d="M48097 38721
L48360 38721
L48191 39115
" />
<path d="M47778 27115
L47647 26927
" />
<path d="M47553 27115
L47553 26721
L47703 26721
L47741 26740
L47760 26758
L47778 26796
L47778 26852
L47760 26890
L47741 26908
L47703 26927
L47553 26927
" />
<path d="M48135 26721
L47947 26721
L47928 26908
L47947 26890
L47985 26871
L48078 26871
L48116 26890
L48135 26908
L48153 26946
L48153 27040
L48135 27077
L48116 27096
L48078 27115
L47985 27115
L47947 27096
L47928 27077
" />
<path d="M47778 23115
L47647 22927
" />
<path d="M47553 23115
L47553 22721
L47703 22721
L47741 22740
L47760 22758
L47778 22796
L47778 22852
L47760 22890
L47741 22908
L47703 22927
L47553 22927
" />
<path d="M48116 22852
L48116 23115
" />
<path d="M48022 22702
L47928 22983
L48172 22983
" />
<path d="M47591 35115
L47460 34927
" />
<path d="M47366 35115
L47366 34721
L47516 34721
L47553 34740
L47572 34758
L47591 34796
L47591 34852
L47572 34890
L47553 34908
L47516 34927
L47366 34927
" />
<path d="M47966 35115
L47741 35115
" />
<path d="M47853 35115
L47853 34721
L47816 34777
L47778 34815
L47741 34833
" />
<path d="M48303 34721
L48228 34721
L48191 34740
L48172 34758
L48135 34815
L48116 34890
L48116 35040
L48135 35077
L48153 35096
L48191 35115
L48266 35115
L48303 35096
L48322 35077
L48341 35040
L48341 34946
L48322 34908
L48303 34890
L48266 34871
L48191 34871
L48153 34890
L48135 34908
L48116 34946
" />
<path d="M47778 19115
L47647 18927
" />
<path d="M47553 19115
L47553 18721
L47703 18721
L47741 18740
L47760 18758
L47778 18796
L47778 18852
L47760 18890
L47741 18908
L47703 18927
L47553 18927
" />
<path d="M47910 18721
L48153 18721
L48022 18871
L48078 18871
L48116 18890
L48135 18908
L48153 18946
L48153 19040
L48135 19077
L48116 19096
L48078 19115
L47966 19115
L47928 19096
L47910 19077
" />
<path d="M47591 31178
L47460 30990
" />
<path d="M47366 31178
L47366 30784
L47516 30784
L47553 30803
L47572 30821
L47591 30859
L47591 30915
L47572 30953
L47553 30971
L47516 30990
L47366 30990
" />
<path d="M47966 31178
L47741 31178
" />
<path d="M47853 31178
L47853 30784
L47816 30840
L47778 30878
L47741 30896
" />
<path d="M48322 30784
L48135 30784
L48116 30971
L48135 30953
L48172 30934
L48266 30934
L48303 30953
L48322 30971
L48341 31009
L48341 31103
L48322 31140
L48303 31159
L48266 31178
L48172 31178
L48135 31159
L48116 31140
" />
<path d="M47591 33178
L47460 32990
" />
<path d="M47366 33178
L47366 32784
L47516 32784
L47553 32803
L47572 32821
L47591 32859
L47591 32915
L47572 32953
L47553 32971
L47516 32990
L47366 32990
" />
<path d="M47966 33178
L47741 33178
" />
<path d="M47853 33178
L47853 32784
L47816 32840
L47778 32878
L47741 32896
" />
<path d="M48153 33178
L48228 33178
L48266 33159
L48285 33140
L48322 33084
L48341 33009
L48341 32859
L48322 32821
L48303 32803
L48266 32784
L48191 32784
L48153 32803
L48135 32821
L48116 32859
L48116 32953
L48135 32990
L48153 33009
L48191 33028
L48266 33028
L48303 33009
L48322 32990
L48341 32953
" />
<path d="M47591 36115
L47460 35927
" />
<path d="M47366 36115
L47366 35721
L47516 35721
L47553 35740
L47572 35758
L47591 35796
L47591 35852
L47572 35890
L47553 35908
L47516 35927
L47366 35927
" />
<path d="M47741 35758
L47760 35740
L47797 35721
L47891 35721
L47928 35740
L47947 35758
L47966 35796
L47966 35833
L47947 35890
L47722 36115
L47966 36115
" />
<path d="M48341 36115
L48116 36115
" />
<path d="M48228 36115
L48228 35721
L48191 35777
L48153 35815
L48116 35833
" />
<path d="M47496 40178
L47365 39990
" />
<path d="M47271 40178
L47271 39784
L47421 39784
L47459 39803
L47478 39821
L47496 39859
L47496 39915
L47478 39953
L47459 39971
L47421 39990
L47271 39990
" />
<path d="M47646 39821
L47665 39803
L47703 39784
L47796 39784
L47834 39803
L47853 39821
L47871 39859
L47871 39896
L47853 39953
L47628 40178
L47871 40178
" />
<path d="M48003 39784
L48246 39784
L48115 39934
L48171 39934
L48209 39953
L48228 39971
L48246 40009
L48246 40103
L48228 40140
L48209 40159
L48171 40178
L48059 40178
L48021 40159
L48003 40140
" />
<path d="M58902 28615
L58771 28427
" />
<path d="M58677 28615
L58677 28221
L58827 28221
L58864 28240
L58883 28258
L58902 28296
L58902 28352
L58883 28390
L58864 28408
L58827 28427
L58677 28427
" />
<path d="M59052 28258
L59071 28240
L59108 28221
L59202 28221
L59239 28240
L59258 28258
L59277 28296
L59277 28333
L59258 28390
L59033 28615
L59277 28615
" />
<path d="M59633 28221
L59446 28221
L59427 28408
L59446 28390
L59483 28371
L59577 28371
L59614 28390
L59633 28408
L59652 28446
L59652 28540
L59633 28577
L59614 28596
L59577 28615
L59483 28615
L59446 28596
L59427 28577
" />
<path d="M58902 29615
L58771 29427
" />
<path d="M58677 29615
L58677 29221
L58827 29221
L58864 29240
L58883 29258
L58902 29296
L58902 29352
L58883 29390
L58864 29408
L58827 29427
L58677 29427
" />
<path d="M59052 29258
L59071 29240
L59108 29221
L59202 29221
L59239 29240
L59258 29258
L59277 29296
L59277 29333
L59258 29390
L59033 29615
L59277 29615
" />
<path d="M59614 29221
L59539 29221
L59502 29240
L59483 29258
L59446 29315
L59427 29390
L59427 29540
L59446 29577
L59464 29596
L59502 29615
L59577 29615
L59614 29596
L59633 29577
L59652 29540
L59652 29446
L59633 29408
L59614 29390
L59577 29371
L59502 29371
L59464 29390
L59446 29408
L59427 29446
" />
<path d="M58902 30615
L58771 30427
" />
<path d="M58677 30615
L58677 30221
L58827 30221
L58864 30240
L58883 30258
L58902 30296
L58902 30352
L58883 30390
L58864 30408
L58827 30427
L58677 30427
" />
<path d="M59052 30258
L59071 30240
L59108 30221
L59202 30221
L59239 30240
L59258 30258
L59277 30296
L59277 30333
L59258 30390
L59033 30615
L59277 30615
" />
<path d="M59408 30221
L59671 30221
L59502 30615
" />
<path d="M70591 34741
L70460 34553
" />
<path d="M70366 34741
L70366 34347
L70516 34347
L70553 34366
L70572 34384
L70591 34422
L70591 34478
L70572 34516
L70553 34534
L70516 34553
L70366 34553
" />
<path d="M70741 34384
L70760 34366
L70797 34347
L70891 34347
L70928 34366
L70947 34384
L70966 34422
L70966 34459
L70947 34516
L70722 34741
L70966 34741
" />
<path d="M71191 34516
L71153 34497
L71135 34478
L71116 34441
L71116 34422
L71135 34384
L71153 34366
L71191 34347
L71266 34347
L71303 34366
L71322 34384
L71341 34422
L71341 34441
L71322 34478
L71303 34497
L71266 34516
L71191 34516
L71153 34534
L71135 34553
L71116 34591
L71116 34666
L71135 34703
L71153 34722
L71191 34741
L71266 34741
L71303 34722
L71322 34703
L71341 34666
L71341 34591
L71322 34553
L71303 34534
L71266 34516
" />
<path d="M70652 38741
L70521 38553
" />
<path d="M70427 38741
L70427 38347
L70577 38347
L70614 38366
L70633 38384
L70652 38422
L70652 38478
L70633 38516
L70614 38534
L70577 38553
L70427 38553
" />
<path d="M70802 38384
L70821 38366
L70858 38347
L70952 38347
L70989 38366
L71008 38384
L71027 38422
L71027 38459
L71008 38516
L70783 38741
L71027 38741
" />
<path d="M71214 38741
L71289 38741
L71327 38722
L71346 38703
L71383 38647
L71402 38572
L71402 38422
L71383 38384
L71364 38366
L71327 38347
L71252 38347
L71214 38366
L71196 38384
L71177 38422
L71177 38516
L71196 38553
L71214 38572
L71252 38591
L71327 38591
L71364 38572
L71383 38553
L71402 38516
" />
<path d="M58902 27615
L58771 27427
" />
<path d="M58677 27615
L58677 27221
L58827 27221
L58864 27240
L58883 27258
L58902 27296
L58902 27352
L58883 27390
L58864 27408
L58827 27427
L58677 27427
" />
<path d="M59052 27258
L59071 27240
L59108 27221
L59202 27221
L59239 27240
L59258 27258
L59277 27296
L59277 27333
L59258 27390
L59033 27615
L59277 27615
" />
<path d="M59614 27352
L59614 27615
" />
<path d="M59521 27202
L59427 27483
L59671 27483
" />
<path d="M47778 20115
L47647 19927
" />
<path d="M47553 20115
L47553 19721
L47703 19721
L47741 19740
L47760 19758
L47778 19796
L47778 19852
L47760 19890
L47741 19908
L47703 19927
L47553 19927
" />
<path d="M47910 19721
L48172 19721
L48003 20115
" />
<path d="M58902 22615
L58771 22427
" />
<path d="M58677 22615
L58677 22221
L58827 22221
L58864 22240
L58883 22258
L58902 22296
L58902 22352
L58883 22390
L58864 22408
L58827 22427
L58677 22427
" />
<path d="M59277 22615
L59052 22615
" />
<path d="M59164 22615
L59164 22221
L59127 22277
L59089 22315
L59052 22333
" />
<path d="M59614 22352
L59614 22615
" />
<path d="M59521 22202
L59427 22483
L59671 22483
" />
<path d="M47778 23991
L47647 23804
" />
<path d="M47553 23991
L47553 23597
L47703 23597
L47741 23616
L47760 23635
L47778 23672
L47778 23729
L47760 23766
L47741 23785
L47703 23804
L47553 23804
" />
<path d="M47966 23991
L48041 23991
L48078 23972
L48097 23954
L48135 23897
L48153 23822
L48153 23672
L48135 23635
L48116 23616
L48078 23597
L48003 23597
L47966 23616
L47947 23635
L47928 23672
L47928 23766
L47947 23804
L47966 23822
L48003 23841
L48078 23841
L48116 23822
L48135 23804
L48153 23766
" />
<path d="M47591 28115
L47460 27927
" />
<path d="M47366 28115
L47366 27721
L47516 27721
L47553 27740
L47572 27758
L47591 27796
L47591 27852
L47572 27890
L47553 27908
L47516 27927
L47366 27927
" />
<path d="M47966 28115
L47741 28115
" />
<path d="M47853 28115
L47853 27721
L47816 27777
L47778 27815
L47741 27833
" />
<path d="M48341 28115
L48116 28115
" />
<path d="M48228 28115
L48228 27721
L48191 27777
L48153 27815
L48116 27833
" />
<path d="M47591 34078
L47460 33890
" />
<path d="M47366 34078
L47366 33684
L47516 33684
L47553 33703
L47572 33721
L47591 33759
L47591 33815
L47572 33853
L47553 33871
L47516 33890
L47366 33890
" />
<path d="M47741 33721
L47760 33703
L47797 33684
L47891 33684
L47928 33703
L47947 33721
L47966 33759
L47966 33796
L47947 33853
L47722 34078
L47966 34078
" />
<path d="M48210 33684
L48247 33684
L48285 33703
L48303 33721
L48322 33759
L48341 33834
L48341 33928
L48322 34003
L48303 34040
L48285 34059
L48247 34078
L48210 34078
L48172 34059
L48153 34040
L48135 34003
L48116 33928
L48116 33834
L48135 33759
L48153 33721
L48172 33703
L48210 33684
" />
<path d="M47591 26178
L47460 25990
" />
<path d="M47366 26178
L47366 25784
L47516 25784
L47553 25803
L47572 25821
L47591 25859
L47591 25915
L47572 25953
L47553 25971
L47516 25990
L47366 25990
" />
<path d="M47966 26178
L47741 26178
" />
<path d="M47853 26178
L47853 25784
L47816 25840
L47778 25878
L47741 25896
" />
<path d="M48210 25784
L48247 25784
L48285 25803
L48303 25821
L48322 25859
L48341 25934
L48341 26028
L48322 26103
L48303 26140
L48285 26159
L48247 26178
L48210 26178
L48172 26159
L48153 26140
L48135 26103
L48116 26028
L48116 25934
L48135 25859
L48153 25821
L48172 25803
L48210 25784
" />
<path d="M47778 22178
L47647 21990
" />
<path d="M47553 22178
L47553 21784
L47703 21784
L47741 21803
L47760 21821
L47778 21859
L47778 21915
L47760 21953
L47741 21971
L47703 21990
L47553 21990
" />
<path d="M48003 21953
L47966 21934
L47947 21915
L47928 21878
L47928 21859
L47947 21821
L47966 21803
L48003 21784
L48078 21784
L48116 21803
L48135 21821
L48153 21859
L48153 21878
L48135 21915
L48116 21934
L48078 21953
L48003 21953
L47966 21971
L47947 21990
L47928 22028
L47928 22103
L47947 22140
L47966 22159
L48003 22178
L48078 22178
L48116 22159
L48135 22140
L48153 22103
L48153 22028
L48135 21990
L48116 21971
L48078 21953
" />
<path d="M47591 38178
L47460 37990
" />
<path d="M47366 38178
L47366 37784
L47516 37784
L47553 37803
L47572 37821
L47591 37859
L47591 37915
L47572 37953
L47553 37971
L47516 37990
L47366 37990
" />
<path d="M47741 37821
L47760 37803
L47797 37784
L47891 37784
L47928 37803
L47947 37821
L47966 37859
L47966 37896
L47947 37953
L47722 38178
L47966 38178
" />
<path d="M48116 37821
L48135 37803
L48172 37784
L48266 37784
L48303 37803
L48322 37821
L48341 37859
L48341 37896
L48322 37953
L48097 38178
L48341 38178
" />
<path d="M47591 30178
L47460 29990
" />
<path d="M47366 30178
L47366 29784
L47516 29784
L47553 29803
L47572 29821
L47591 29859
L47591 29915
L47572 29953
L47553 29971
L47516 29990
L47366 29990
" />
<path d="M47966 30178
L47741 30178
" />
<path d="M47853 30178
L47853 29784
L47816 29840
L47778 29878
L47741 29896
" />
<path d="M48191 29953
L48153 29934
L48135 29915
L48116 29878
L48116 29859
L48135 29821
L48153 29803
L48191 29784
L48266 29784
L48303 29803
L48322 29821
L48341 29859
L48341 29878
L48322 29915
L48303 29934
L48266 29953
L48191 29953
L48153 29971
L48135 29990
L48116 30028
L48116 30103
L48135 30140
L48153 30159
L48191 30178
L48266 30178
L48303 30159
L48322 30140
L48341 30103
L48341 30028
L48322 29990
L48303 29971
L48266 29953
" />
<path d="M47778 18086
L47647 17898
" />
<path d="M47553 18086
L47553 17692
L47703 17692
L47741 17711
L47760 17729
L47778 17767
L47778 17823
L47760 17861
L47741 17879
L47703 17898
L47553 17898
" />
<path d="M48116 17692
L48041 17692
L48003 17711
L47985 17729
L47947 17786
L47928 17861
L47928 18011
L47947 18048
L47966 18067
L48003 18086
L48078 18086
L48116 18067
L48135 18048
L48153 18011
L48153 17917
L48135 17879
L48116 17861
L48078 17842
L48003 17842
L47966 17861
L47947 17879
L47928 17917
" />
<path d="M48975 21909
L49031 21928
L49125 21928
L49162 21909
L49181 21890
L49200 21853
L49200 21815
L49181 21778
L49162 21759
L49125 21740
L49050 21721
L49012 21703
L48993 21684
L48975 21646
L48975 21609
L48993 21571
L49012 21553
L49050 21534
L49143 21534
L49200 21553
" />
<path d="M49331 21534
L49425 21928
L49500 21646
L49574 21928
L49668 21534
" />
<path d="M49799 21571
L49818 21553
L49856 21534
L49949 21534
L49987 21553
L50006 21571
L50024 21609
L50024 21646
L50006 21703
L49781 21928
L50024 21928
" />
<path d="M76331 36732
L76612 36732
L76669 36750
L76706 36788
L76725 36844
L76725 36882
" />
<path d="M76725 36338
L76725 36563
" />
<path d="M76725 36450
L76331 36450
L76387 36488
L76425 36525
L76444 36563
" />
<path d="M76725 35963
L76725 36188
" />
<path d="M76725 36075
L76331 36075
L76387 36113
L76425 36150
L76444 36188
" />
<path d="M42305 20871
L42305 21152
L42287 21208
L42249 21245
L42193 21264
L42155 21264
" />
<path d="M42455 20871
L42699 20871
L42568 21020
L42624 21020
L42661 21039
L42680 21058
L42699 21095
L42699 21189
L42680 21227
L42661 21245
L42624 21264
L42511 21264
L42474 21245
L42455 21227
" />
<path d="M42305 24871
L42305 25152
L42287 25208
L42249 25245
L42193 25264
L42155 25264
" />
<path d="M42661 25002
L42661 25264
" />
<path d="M42568 24852
L42474 25133
L42718 25133
" />
<path d="M42305 28871
L42305 29152
L42287 29208
L42249 29245
L42193 29264
L42155 29264
" />
<path d="M42680 28871
L42493 28871
L42474 29058
L42493 29039
L42530 29020
L42624 29020
L42661 29039
L42680 29058
L42699 29095
L42699 29189
L42680 29227
L42661 29245
L42624 29264
L42530 29264
L42493 29245
L42474 29227
" />
<path d="M42333 32871
L42333 33152
L42314 33208
L42277 33245
L42220 33264
L42183 33264
" />
<path d="M42689 32871
L42614 32871
L42577 32889
L42558 32908
L42520 32964
L42502 33039
L42502 33189
L42520 33227
L42539 33245
L42577 33264
L42652 33264
L42689 33245
L42708 33227
L42727 33189
L42727 33095
L42708 33058
L42689 33039
L42652 33020
L42577 33020
L42539 33039
L42520 33058
L42502 33095
" />
<path d="M42333 36871
L42333 37152
L42314 37208
L42277 37245
L42220 37264
L42183 37264
" />
<path d="M42483 36871
L42745 36871
L42577 37264
" />
<path d="M76331 32732
L76612 32732
L76669 32750
L76706 32788
L76725 32844
L76725 32882
" />
<path d="M76725 32338
L76725 32563
" />
<path d="M76725 32450
L76331 32450
L76387 32488
L76425 32525
L76444 32563
" />
<path d="M76331 32094
L76331 32057
L76350 32019
L76369 32000
L76406 31982
L76481 31963
L76575 31963
L76650 31982
L76687 32000
L76706 32019
L76725 32057
L76725 32094
L76706 32132
L76687 32150
L76650 32169
L76575 32188
L76481 32188
L76406 32169
L76369 32150
L76350 32132
L76331 32094
" />
<path d="M42305 40871
L42305 41152
L42287 41208
L42249 41245
L42193 41264
L42155 41264
" />
<path d="M42549 41039
L42511 41020
L42493 41002
L42474 40964
L42474 40946
L42493 40908
L42511 40889
L42549 40871
L42624 40871
L42661 40889
L42680 40908
L42699 40946
L42699 40964
L42680 41002
L42661 41020
L42624 41039
L42549 41039
L42511 41058
L42493 41077
L42474 41114
L42474 41189
L42493 41227
L42511 41245
L42549 41264
L42624 41264
L42661 41245
L42680 41227
L42699 41189
L42699 41114
L42680 41077
L42661 41058
L42624 41039
" />
<path d="M48975 25909
L49031 25928
L49125 25928
L49162 25909
L49181 25890
L49200 25853
L49200 25815
L49181 25778
L49162 25759
L49125 25740
L49050 25721
L49012 25703
L48993 25684
L48975 25646
L48975 25609
L48993 25571
L49012 25553
L49050 25534
L49143 25534
L49200 25553
" />
<path d="M49331 25534
L49425 25928
L49500 25646
L49574 25928
L49668 25534
" />
<path d="M49781 25534
L50024 25534
L49893 25684
L49949 25684
L49987 25703
L50006 25721
L50024 25759
L50024 25853
L50006 25890
L49987 25909
L49949 25928
L49837 25928
L49799 25909
L49781 25890
" />
<path d="M48975 29909
L49031 29928
L49125 29928
L49162 29909
L49181 29890
L49200 29853
L49200 29815
L49181 29778
L49162 29759
L49125 29740
L49050 29721
L49012 29703
L48993 29684
L48975 29646
L48975 29609
L48993 29571
L49012 29553
L49050 29534
L49143 29534
L49200 29553
" />
<path d="M49331 29534
L49425 29928
L49500 29646
L49574 29928
L49668 29534
" />
<path d="M49781 29534
L50043 29534
L49874 29928
" />
<path d="M48975 17742
L49031 17760
L49125 17760
L49162 17742
L49181 17723
L49200 17685
L49200 17648
L49181 17610
L49162 17592
L49125 17573
L49050 17554
L49012 17535
L48993 17517
L48975 17479
L48975 17442
L48993 17404
L49012 17385
L49050 17367
L49143 17367
L49200 17385
" />
<path d="M49331 17367
L49425 17760
L49500 17479
L49574 17760
L49668 17367
" />
<path d="M50024 17760
L49799 17760
" />
<path d="M49912 17760
L49912 17367
L49874 17423
L49837 17460
L49799 17479
" />
<path d="M48975 33909
L49031 33928
L49125 33928
L49162 33909
L49181 33890
L49200 33853
L49200 33815
L49181 33778
L49162 33759
L49125 33740
L49050 33721
L49012 33703
L48993 33684
L48975 33646
L48975 33609
L48993 33571
L49012 33553
L49050 33534
L49143 33534
L49200 33553
" />
<path d="M49331 33534
L49425 33928
L49500 33646
L49574 33928
L49668 33534
" />
<path d="M49874 33703
L49837 33684
L49818 33665
L49799 33628
L49799 33609
L49818 33571
L49837 33553
L49874 33534
L49949 33534
L49987 33553
L50006 33571
L50024 33609
L50024 33628
L50006 33665
L49987 33684
L49949 33703
L49874 33703
L49837 33721
L49818 33740
L49799 33778
L49799 33853
L49818 33890
L49837 33909
L49874 33928
L49949 33928
L49987 33909
L50006 33890
L50024 33853
L50024 33778
L50006 33740
L49987 33721
L49949 33703
" />
<path d="M48975 37909
L49031 37928
L49125 37928
L49162 37909
L49181 37890
L49200 37853
L49200 37815
L49181 37778
L49162 37759
L49125 37740
L49050 37721
L49012 37703
L48993 37684
L48975 37646
L48975 37609
L48993 37571
L49012 37553
L49050 37534
L49143 37534
L49200 37553
" />
<path d="M49331 37534
L49425 37928
L49500 37646
L49574 37928
L49668 37534
" />
<path d="M49837 37928
L49912 37928
L49949 37909
L49968 37890
L50006 37834
L50024 37759
L50024 37609
L50006 37571
L49987 37553
L49949 37534
L49874 37534
L49837 37553
L49818 37571
L49799 37609
L49799 37703
L49818 37740
L49837 37759
L49874 37778
L49949 37778
L49987 37759
L50006 37740
L50024 37703
" />
<path d="M56368 25867
L56368 26148
L56350 26204
L56312 26242
L56256 26260
L56218 26260
" />
<path d="M56762 26260
L56537 26260
" />
<path d="M56649 26260
L56649 25867
L56612 25923
L56574 25960
L56537 25979
" />
<path d="M54372 47509
L54428 47528
L54522 47528
L54560 47509
L54578 47491
L54597 47453
L54597 47416
L54578 47378
L54560 47359
L54522 47341
L54447 47322
L54410 47303
L54391 47284
L54372 47247
L54372 47209
L54391 47172
L54410 47153
L54447 47134
L54541 47134
L54597 47153
" />
<path d="M54728 47134
L54822 47528
L54897 47247
L54972 47528
L55066 47134
" />
<path d="M55403 47134
L55216 47134
L55197 47322
L55216 47303
L55253 47284
L55347 47284
L55385 47303
L55403 47322
L55422 47359
L55422 47453
L55403 47491
L55385 47509
L55347 47528
L55253 47528
L55216 47509
L55197 47491
" />
<path d="M54372 54509
L54428 54528
L54522 54528
L54560 54509
L54578 54491
L54597 54453
L54597 54416
L54578 54378
L54560 54359
L54522 54341
L54447 54322
L54410 54303
L54391 54284
L54372 54247
L54372 54209
L54391 54172
L54410 54153
L54447 54134
L54541 54134
L54597 54153
" />
<path d="M54728 54134
L54822 54528
L54897 54247
L54972 54528
L55066 54134
" />
<path d="M55385 54134
L55310 54134
L55272 54153
L55253 54172
L55216 54228
L55197 54303
L55197 54453
L55216 54491
L55235 54509
L55272 54528
L55347 54528
L55385 54509
L55403 54491
L55422 54453
L55422 54359
L55403 54322
L55385 54303
L55347 54284
L55272 54284
L55235 54303
L55216 54322
L55197 54359
" />
<path d="M61185 47509
L61241 47528
L61335 47528
L61372 47509
L61391 47491
L61410 47453
L61410 47416
L61391 47378
L61372 47359
L61335 47341
L61260 47322
L61222 47303
L61203 47284
L61185 47247
L61185 47209
L61203 47172
L61222 47153
L61260 47134
L61353 47134
L61410 47153
" />
<path d="M61541 47134
L61635 47528
L61710 47247
L61785 47528
L61878 47134
" />
<path d="M62235 47528
L62010 47528
" />
<path d="M62122 47528
L62122 47134
L62085 47191
L62047 47228
L62010 47247
" />
<path d="M62478 47134
L62516 47134
L62553 47153
L62572 47172
L62591 47209
L62610 47284
L62610 47378
L62591 47453
L62572 47491
L62553 47509
L62516 47528
L62478 47528
L62441 47509
L62422 47491
L62403 47453
L62385 47378
L62385 47284
L62403 47209
L62422 47172
L62441 47153
L62478 47134
" />
<path d="M61185 54509
L61241 54528
L61335 54528
L61372 54509
L61391 54491
L61410 54453
L61410 54416
L61391 54378
L61372 54359
L61335 54341
L61260 54322
L61222 54303
L61203 54284
L61185 54247
L61185 54209
L61203 54172
L61222 54153
L61260 54134
L61353 54134
L61410 54153
" />
<path d="M61541 54134
L61635 54528
L61710 54247
L61785 54528
L61878 54134
" />
<path d="M62235 54528
L62010 54528
" />
<path d="M62122 54528
L62122 54134
L62085 54191
L62047 54228
L62010 54247
" />
<path d="M62610 54528
L62385 54528
" />
<path d="M62497 54528
L62497 54134
L62460 54191
L62422 54228
L62385 54247
" />
<path d="M68185 54509
L68241 54528
L68335 54528
L68372 54509
L68391 54491
L68410 54453
L68410 54416
L68391 54378
L68372 54359
L68335 54341
L68260 54322
L68222 54303
L68203 54284
L68185 54247
L68185 54209
L68203 54172
L68222 54153
L68260 54134
L68353 54134
L68410 54153
" />
<path d="M68541 54134
L68635 54528
L68710 54247
L68785 54528
L68878 54134
" />
<path d="M69235 54528
L69010 54528
" />
<path d="M69122 54528
L69122 54134
L69085 54191
L69047 54228
L69010 54247
" />
<path d="M69366 54134
L69610 54134
L69478 54284
L69535 54284
L69572 54303
L69591 54322
L69610 54359
L69610 54453
L69591 54491
L69572 54509
L69535 54528
L69422 54528
L69385 54509
L69366 54491
" />
<path d="M75185 47509
L75241 47528
L75335 47528
L75372 47509
L75391 47491
L75410 47453
L75410 47416
L75391 47378
L75372 47359
L75335 47341
L75260 47322
L75222 47303
L75203 47284
L75185 47247
L75185 47209
L75203 47172
L75222 47153
L75260 47134
L75353 47134
L75410 47153
" />
<path d="M75541 47134
L75635 47528
L75710 47247
L75785 47528
L75878 47134
" />
<path d="M76235 47528
L76010 47528
" />
<path d="M76122 47528
L76122 47134
L76085 47191
L76047 47228
L76010 47247
" />
<path d="M76572 47266
L76572 47528
" />
<path d="M76478 47116
L76385 47397
L76628 47397
" />
<path d="M46185 54478
L46241 54497
L46335 54497
L46372 54478
L46391 54459
L46410 54422
L46410 54384
L46391 54347
L46372 54328
L46335 54309
L46260 54290
L46222 54272
L46203 54253
L46185 54215
L46185 54178
L46203 54140
L46222 54122
L46260 54103
L46353 54103
L46410 54122
" />
<path d="M46541 54103
L46635 54497
L46710 54215
L46785 54497
L46878 54103
" />
<path d="M47235 54497
L47010 54497
" />
<path d="M47122 54497
L47122 54103
L47085 54159
L47047 54197
L47010 54215
" />
<path d="M47591 54103
L47403 54103
L47385 54290
L47403 54272
L47441 54253
L47535 54253
L47572 54272
L47591 54290
L47610 54328
L47610 54422
L47591 54459
L47572 54478
L47535 54497
L47441 54497
L47403 54478
L47385 54459
" />
</g> 
</svg>
